; Drill file
; Format: 3.2 (000.00)
M48
METRIC
T01C0.7
T02C0.75
T03C1
T04C2.5
%
G05
G90
T01
X8.20Y-94.44
X8.20Y-91.47
X5.90Y-85.51
X5.89Y-82.69
X5.91Y-79.85
X6.67Y-75.47
X4.13Y-75.47
X8.88Y-72.36
X8.28Y-66.91
X13.96Y-66.91
X17.87Y-64.73
X20.41Y-64.73
X24.53Y-64.73
X27.07Y-64.73
X29.56Y-66.77
X31.52Y-63.47
X28.37Y-60.73
X25.48Y-58.32
X25.48Y-55.78
X22.23Y-55.78
X22.23Y-58.32
X19.29Y-60.71
X13.92Y-59.37
X8.24Y-59.37
X11.72Y-51.58
X11.72Y-47.58
X11.72Y-43.58
X12.60Y-38.98
X9.60Y-39.00
X6.61Y-39.02
X3.64Y-39.06
X4.14Y-43.54
X4.14Y-47.54
X4.14Y-51.54
X19.29Y-53.09
X20.60Y-46.57
X24.96Y-46.10
X27.50Y-46.10
X30.49Y-46.10
X30.88Y-43.17
X33.28Y-41.77
X35.93Y-41.78
X38.33Y-40.39
X35.93Y-38.98
X35.93Y-35.93
X35.93Y-33.39
X36.83Y-30.17
X38.95Y-29.85
X41.76Y-29.87
X46.99Y-30.42
X49.53Y-30.42
X53.06Y-30.42
X55.60Y-30.42
X61.74Y-32.11
X64.71Y-32.07
X67.70Y-32.05
X70.70Y-32.03
X69.86Y-28.29
X69.86Y-24.29
X69.86Y-20.29
X70.77Y-15.50
X67.79Y-15.50
X64.83Y-15.50
X61.74Y-13.17
X64.83Y-7.88
X67.79Y-7.88
X70.77Y-7.88
X76.47Y-11.38
X76.47Y-13.92
X79.47Y-13.93
X79.46Y-16.82
X82.43Y-16.84
X83.05Y-13.93
X85.44Y-12.53
X88.10Y-12.54
X90.49Y-11.14
X90.49Y-13.94
X91.72Y-16.62
X94.52Y-17.79
X96.29Y-15.33
X93.89Y-13.93
X96.29Y-12.53
X99.23Y-12.62
X99.24Y-15.75
X99.24Y-18.29
X99.60Y-25.91
X96.63Y-25.89
X94.52Y-25.41
X91.72Y-24.24
X90.41Y-25.91
X88.65Y-24.24
X86.89Y-25.91
X82.43Y-24.46
X79.46Y-24.44
X76.47Y-24.36
X76.47Y-31.98
X78.28Y-35.00
X82.77Y-35.02
X85.17Y-36.42
X82.77Y-37.82
X82.64Y-41.95
X85.18Y-41.95
X88.17Y-41.94
X88.57Y-39.21
X90.96Y-37.81
X93.62Y-37.82
X96.01Y-36.42
X93.62Y-35.02
X93.61Y-31.97
X93.61Y-29.43
X96.63Y-33.51
X99.60Y-33.53
X99.59Y-36.42
X102.59Y-36.42
X102.59Y-33.88
X107.39Y-32.38
X112.23Y-32.38
X116.89Y-33.44
X116.89Y-30.90
X116.89Y-26.94
X116.89Y-24.40
X116.89Y-20.51
X116.89Y-17.97
X116.89Y-14.08
X116.89Y-11.54
X112.23Y-11.51
X107.39Y-11.51
X105.21Y-7.28
X107.39Y-4.93
X111.39Y-4.93
X115.39Y-4.93
X120.72Y-8.79
X123.73Y-8.80
X126.77Y-8.80
X129.75Y-8.80
X129.75Y-16.42
X126.77Y-16.42
X123.73Y-16.42
X120.72Y-16.41
X121.84Y-22.17
X121.84Y-26.17
X121.84Y-30.17
X121.83Y-35.02
X121.91Y-37.99
X121.20Y-41.72
X124.30Y-41.72
X127.42Y-41.72
X126.99Y-37.99
X126.91Y-35.02
X129.42Y-30.13
X129.42Y-26.13
X132.60Y-26.09
X132.60Y-23.55
X129.42Y-22.13
X112.23Y-21.94
X107.39Y-21.94
X107.39Y-16.76
X112.23Y-16.76
X112.23Y-27.13
X107.39Y-27.13
X107.39Y-37.55
X112.23Y-37.55
X116.89Y-37.45
X116.89Y-39.99
X112.23Y-42.68
X107.39Y-42.68
X107.39Y-47.68
X105.17Y-51.21
X107.38Y-54.14
X111.38Y-54.14
X115.38Y-54.14
X121.47Y-54.70
X124.01Y-54.70
X127.40Y-54.77
X129.94Y-54.77
X126.78Y-59.44
X123.81Y-59.45
X120.87Y-61.08
X120.81Y-67.05
X123.81Y-67.07
X126.78Y-67.06
X130.04Y-65.61
X132.58Y-65.61
X130.03Y-70.23
X127.63Y-71.63
X130.03Y-73.03
X126.91Y-74.83
X123.81Y-74.82
X120.81Y-74.67
X113.24Y-76.34
X110.00Y-73.81
X110.00Y-70.63
X113.24Y-68.72
X109.98Y-65.88
X109.49Y-61.07
X106.95Y-61.07
X113.25Y-61.08
X102.36Y-65.88
X97.96Y-65.92
X98.78Y-60.44
X96.24Y-60.44
X93.70Y-60.44
X90.27Y-60.86
X90.27Y-63.40
X90.27Y-65.94
X90.27Y-68.48
X87.75Y-72.44
X88.49Y-75.61
X91.52Y-77.51
X92.91Y-79.91
X94.32Y-77.51
X97.96Y-73.54
X102.38Y-73.81
X102.38Y-70.63
X104.64Y-77.87
X106.04Y-80.27
X107.44Y-77.87
X102.37Y-81.65
X99.83Y-81.65
X103.69Y-86.61
X105.09Y-89.01
X106.49Y-86.61
X110.39Y-86.57
X110.39Y-89.11
X109.06Y-92.68
X101.44Y-92.68
X94.74Y-89.46
X94.74Y-86.92
X88.12Y-89.30
X84.12Y-89.30
X80.49Y-92.72
X76.34Y-90.49
X80.49Y-85.10
X83.11Y-82.55
X85.65Y-82.55
X88.49Y-83.23
X82.26Y-76.46
X79.72Y-76.46
X82.27Y-72.44
X82.65Y-68.48
X82.65Y-65.94
X82.65Y-63.40
X82.65Y-60.86
X79.83Y-55.78
X75.83Y-55.78
X72.92Y-61.12
X70.03Y-61.14
X68.63Y-58.74
X67.23Y-61.14
X64.80Y-61.12
X64.80Y-66.60
X72.92Y-68.74
X76.34Y-68.44
X76.34Y-65.90
X76.34Y-72.40
X72.90Y-77.41
X70.36Y-77.41
X76.34Y-80.02
X76.34Y-82.87
X61.13Y-91.24
X58.59Y-91.24
X56.07Y-88.07
X56.07Y-85.53
X52.16Y-83.89
X50.56Y-88.09
X47.08Y-83.89
X44.88Y-88.09
X41.70Y-89.09
X39.16Y-89.09
X41.72Y-91.86
X44.92Y-95.63
X50.60Y-95.63
X34.10Y-91.86
X32.70Y-95.05
X30.16Y-95.05
X29.81Y-85.47
X32.35Y-85.47
X27.06Y-85.49
X27.05Y-82.67
X27.07Y-79.83
X33.91Y-78.29
X36.45Y-75.75
X33.91Y-73.21
X37.18Y-66.77
X37.20Y-63.47
X42.21Y-61.53
X46.43Y-60.13
X43.55Y-56.42
X43.55Y-53.88
X41.75Y-48.01
X38.11Y-46.10
X35.93Y-49.43
X37.16Y-55.93
X31.48Y-55.93
X28.37Y-53.11
X28.31Y-49.43
X25.09Y-41.78
X27.48Y-40.38
X25.09Y-38.98
X25.06Y-35.97
X25.06Y-33.43
X24.74Y-28.42
X21.77Y-28.40
X18.78Y-25.78
X18.79Y-20.41
X18.79Y-17.87
X18.78Y-14.88
X21.78Y-17.89
X21.77Y-20.78
X24.74Y-20.80
X25.36Y-17.89
X27.76Y-16.49
X30.41Y-16.50
X32.81Y-15.10
X32.81Y-17.90
X34.04Y-20.54
X30.96Y-20.54
X27.76Y-19.29
X27.77Y-22.34
X27.77Y-24.88
X30.96Y-28.16
X29.21Y-29.87
X32.73Y-29.87
X34.04Y-28.16
X36.83Y-22.55
X38.60Y-19.29
X36.21Y-17.89
X38.60Y-16.49
X41.54Y-17.14
X41.56Y-20.01
X41.56Y-22.55
X46.98Y-16.18
X49.52Y-16.18
X53.05Y-16.18
X55.59Y-16.18
X62.28Y-20.25
X62.28Y-24.25
X62.28Y-28.25
X61.74Y-37.19
X64.71Y-37.15
X67.70Y-37.13
X70.70Y-37.11
X69.82Y-41.71
X69.82Y-45.71
X69.82Y-49.71
X62.24Y-49.67
X62.24Y-45.67
X62.24Y-41.67
X59.03Y-41.44
X55.62Y-44.59
X53.08Y-44.59
X49.75Y-44.59
X47.21Y-44.59
X41.75Y-40.39
X41.76Y-37.49
X38.95Y-37.47
X44.84Y-37.46
X44.84Y-34.92
X32.73Y-37.49
X30.88Y-40.37
X29.21Y-37.49
X20.60Y-38.95
X18.78Y-33.40
X12.60Y-33.90
X9.60Y-33.92
X6.61Y-33.94
X3.64Y-33.98
X4.18Y-30.12
X4.18Y-26.12
X4.18Y-22.12
X3.64Y-16.49
X6.69Y-16.54
X9.69Y-16.54
X12.67Y-16.54
X11.76Y-22.16
X11.76Y-26.16
X11.76Y-30.16
X12.67Y-8.92
X9.69Y-8.92
X6.69Y-8.92
X3.64Y-8.87
X15.75Y-7.22
X15.75Y-4.68
X18.77Y-4.03
X18.78Y-7.26
X21.78Y-10.27
X25.58Y-12.17
X27.59Y-8.25
X26.39Y-4.03
X35.21Y-8.25
X36.20Y-12.17
X38.74Y-12.17
X41.54Y-9.52
X41.53Y-5.56
X38.99Y-5.56
X33.20Y-12.17
X61.74Y-5.55
X79.47Y-6.31
X83.26Y-5.32
X83.27Y-8.21
X85.44Y-15.33
X85.45Y-18.38
X85.45Y-20.92
X88.65Y-16.62
X90.89Y-8.21
X90.88Y-5.32
X93.88Y-8.21
X96.42Y-8.21
X99.23Y-5.00
X82.74Y-29.47
X82.74Y-32.01
X86.89Y-33.53
X88.57Y-36.41
X90.41Y-33.53
X95.79Y-41.94
X95.80Y-44.92
X99.59Y-44.04
X88.18Y-44.92
X86.35Y-54.04
X83.81Y-54.04
X90.27Y-54.12
X92.81Y-54.12
X78.28Y-42.62
X59.03Y-54.43
X51.42Y-54.48
X51.42Y-51.94
X46.43Y-67.75
X42.21Y-66.34
X17.91Y-75.49
X16.51Y-77.88
X15.11Y-75.49
X16.50Y-72.36
X19.45Y-79.83
X19.43Y-82.67
X19.44Y-85.49
X16.48Y-85.51
X16.48Y-82.97
X13.51Y-82.69
X13.52Y-85.51
X13.53Y-79.85
X15.82Y-91.47
X15.82Y-94.44
X117.68Y-87.88
X120.22Y-87.88
X123.81Y-82.44
X126.91Y-82.45
X126.92Y-86.61
X126.92Y-89.15
X132.67Y-85.28
X132.67Y-77.66
X127.42Y-49.34
X124.30Y-49.34
X121.20Y-49.34
X112.23Y-47.68
T02
X20.06Y-95.44
X22.60Y-95.44
X25.14Y-95.44
X56.06Y-95.73
X58.60Y-95.73
X67.31Y-95.69
X69.85Y-95.69
X76.08Y-95.76
X78.62Y-95.76
X92.93Y-95.73
X95.47Y-95.73
X114.52Y-95.69
X117.06Y-95.69
X120.75Y-4.12
X123.29Y-4.12
X75.85Y-4.05
X73.31Y-4.05
X32.55Y-4.05
X30.01Y-4.05
X11.48Y-4.08
X8.94Y-4.08
X4.16Y-57.23
X4.16Y-59.77
X4.16Y-69.24
X4.16Y-71.78
T03
X21.89Y-73.51
X21.88Y-70.97
X21.89Y-68.43
X26.97Y-70.97
X42.23Y-79.55
X45.13Y-70.55
X51.92Y-69.04
X51.92Y-63.96
X51.92Y-58.88
X59.54Y-58.88
X59.54Y-63.96
X59.54Y-69.04
X59.54Y-76.66
X61.15Y-80.46
X61.15Y-88.08
X51.92Y-76.66
X48.60Y-40.98
X47.11Y-37.52
X48.60Y-33.97
X52.10Y-33.97
X55.60Y-33.97
X57.27Y-37.50
X55.60Y-40.98
X55.62Y-26.66
X57.30Y-23.19
X55.62Y-19.65
X52.12Y-19.65
X48.62Y-19.65
X47.14Y-23.21
X48.62Y-26.66
X48.59Y-12.59
X47.10Y-9.08
X48.59Y-5.58
X52.09Y-5.58
X55.59Y-5.58
X57.26Y-9.06
X55.59Y-12.59
T04
X3.23Y-96.25
X3.16Y-3.38
X131.67Y-3.19
X131.66Y-96.12
M30
