%FSLAX34Y34*%
%MOMM*%
%LNSILK_TOP*%
G71*
G01*
%ADD10C, 2.30*%
%ADD11C, 3.30*%
%ADD12C, 3.00*%
%ADD13C, 2.00*%
%ADD14C, 1.85*%
%ADD15C, 1.85*%
%ADD16C, 3.20*%
%ADD17C, 3.20*%
%ADD18C, 2.20*%
%ADD19C, 3.30*%
%ADD20C, 3.30*%
%ADD21C, 2.00*%
%ADD22C, 3.40*%
%ADD23C, 3.60*%
%ADD24C, 2.40*%
%ADD25C, 2.20*%
%ADD26C, 0.44*%
%ADD27C, 0.49*%
%ADD28C, 0.00*%
%ADD29C, 0.85*%
%ADD30C, 2.20*%
%ADD31C, 2.30*%
%ADD32C, 1.00*%
%ADD33C, 1.20*%
%LPD*%
G36*
X0Y0D02*
X1350000Y0D01*
X1350000Y-1000000D01*
X0Y-1000000D01*
X0Y0D01*
G37*
%LPC*%
X622797Y-202531D02*
G54D10*
D03*
X622797Y-242531D02*
G54D11*
D03*
X622797Y-282531D02*
G54D10*
D03*
X698600Y-202928D02*
G54D11*
D03*
X698600Y-242928D02*
G54D10*
D03*
X698600Y-282928D02*
G54D11*
D03*
X677920Y-78837D02*
G54D12*
D03*
X677920Y-155037D02*
G54D12*
D03*
X648270Y-155038D02*
G54D12*
D03*
X648270Y-78838D02*
G54D13*
D03*
X707680Y-155037D02*
G54D12*
D03*
X707680Y-78837D02*
G54D13*
D03*
G54D14*
X707680Y-155037D02*
X677920Y-155037D01*
X617420Y-55487D02*
G54D12*
D03*
X617420Y-131687D02*
G54D12*
D03*
G54D14*
X617412Y-371896D02*
X646712Y-371896D01*
X647112Y-371496D01*
G54D14*
X647112Y-320696D02*
X676812Y-320696D01*
X677012Y-320496D01*
G54D14*
X677012Y-371296D02*
X706813Y-371296D01*
X707012Y-371096D01*
X622397Y-416731D02*
G54D11*
D03*
X622397Y-456731D02*
G54D11*
D03*
X622397Y-496731D02*
G54D10*
D03*
X698200Y-417128D02*
G54D11*
D03*
X698200Y-457128D02*
G54D11*
D03*
X698200Y-497128D02*
G54D11*
D03*
G54D14*
X617412Y-321096D02*
X617412Y-337600D01*
X626013Y-346200D01*
X695813Y-346200D01*
X707113Y-334900D01*
X707113Y-320396D01*
X707012Y-320296D01*
G54D14*
X622397Y-456731D02*
X643582Y-456731D01*
X683213Y-417100D01*
X698172Y-417100D01*
X698200Y-417128D01*
G54D14*
X622797Y-242531D02*
X646744Y-242531D01*
X662513Y-258300D01*
X662513Y-319200D01*
G54D14*
X622397Y-416731D02*
X622397Y-376881D01*
X617413Y-371896D01*
G54D14*
X707012Y-320296D02*
X707012Y-291340D01*
X698600Y-282928D01*
X758456Y-40501D02*
G54D15*
D03*
X733054Y-40503D02*
G54D16*
D03*
X1122301Y-426806D02*
G54D11*
D03*
X1073901Y-426806D02*
G54D11*
D03*
X1122301Y-375506D02*
G54D11*
D03*
X1073901Y-375506D02*
G54D11*
D03*
X1122301Y-323806D02*
G54D11*
D03*
X1073901Y-323806D02*
G54D11*
D03*
X1122301Y-271306D02*
G54D11*
D03*
X1073901Y-271306D02*
G54D11*
D03*
X1122301Y-219406D02*
G54D11*
D03*
X1073901Y-219406D02*
G54D11*
D03*
X1122301Y-476806D02*
G54D11*
D03*
X1073901Y-476806D02*
G54D11*
D03*
X1122301Y-167606D02*
G54D11*
D03*
X1073901Y-167606D02*
G54D11*
D03*
X1122301Y-115106D02*
G54D11*
D03*
X1073901Y-115106D02*
G54D11*
D03*
X1153900Y-49303D02*
G54D17*
D03*
X1113900Y-49303D02*
G54D17*
D03*
X1073900Y-49303D02*
G54D18*
D03*
X1073769Y-541427D02*
G54D17*
D03*
X1113769Y-541427D02*
G54D17*
D03*
X1153769Y-541428D02*
G54D18*
D03*
G36*
X1242944Y-55322D02*
X1237094Y-61172D01*
X1228794Y-61172D01*
X1222944Y-55322D01*
X1222944Y-27022D01*
X1228794Y-21172D01*
X1237094Y-21172D01*
X1242944Y-27022D01*
X1242944Y-55322D01*
G37*
G36*
X1222544Y-57397D02*
X1213770Y-66172D01*
X1201320Y-66172D01*
X1192544Y-57397D01*
X1192544Y-24947D01*
X1201320Y-16172D01*
X1213770Y-16172D01*
X1222544Y-24947D01*
X1222544Y-57397D01*
G37*
X41822Y-221228D02*
G54D10*
D03*
X41822Y-261228D02*
G54D11*
D03*
X41822Y-301228D02*
G54D10*
D03*
X117625Y-221625D02*
G54D11*
D03*
X117625Y-261625D02*
G54D10*
D03*
X117625Y-301625D02*
G54D11*
D03*
X96945Y-89200D02*
G54D12*
D03*
X96945Y-165400D02*
G54D12*
D03*
X66898Y-165400D02*
G54D12*
D03*
X66898Y-89200D02*
G54D13*
D03*
X126705Y-165400D02*
G54D12*
D03*
X126705Y-89200D02*
G54D13*
D03*
G54D14*
X126705Y-165400D02*
X96945Y-165400D01*
X36445Y-88706D02*
G54D12*
D03*
X36445Y-164906D02*
G54D12*
D03*
G54D14*
X97745Y-126750D02*
X132591Y-126750D01*
X149238Y-143397D01*
X149238Y-190012D01*
X117625Y-221625D01*
X36437Y-339793D02*
G54D12*
D03*
X36438Y-390593D02*
G54D12*
D03*
G54D14*
X36437Y-390593D02*
X65737Y-390593D01*
X66137Y-390193D01*
G54D14*
X66137Y-339393D02*
X95837Y-339393D01*
X96037Y-339193D01*
G54D14*
X96037Y-389993D02*
X125838Y-389993D01*
X126038Y-389793D01*
X41422Y-435428D02*
G54D11*
D03*
X41422Y-475428D02*
G54D11*
D03*
X41422Y-515428D02*
G54D11*
D03*
X117225Y-435825D02*
G54D11*
D03*
X117225Y-475825D02*
G54D11*
D03*
X117225Y-515825D02*
G54D10*
D03*
G54D14*
X36437Y-339793D02*
X36437Y-356296D01*
X45038Y-364897D01*
X114838Y-364897D01*
X126138Y-353597D01*
X126138Y-339093D01*
X126037Y-338993D01*
G54D14*
X41422Y-475428D02*
X62606Y-475428D01*
X102238Y-435797D01*
X117197Y-435797D01*
X117225Y-435825D01*
G54D14*
X41822Y-261228D02*
X65769Y-261228D01*
X81538Y-276997D01*
X81538Y-337897D01*
G54D14*
X41422Y-435428D02*
X41422Y-395578D01*
X36438Y-390593D01*
G54D14*
X126037Y-338993D02*
X126037Y-310037D01*
X117625Y-301625D01*
G36*
X124828Y-54938D02*
X118978Y-60788D01*
X110678Y-60788D01*
X104828Y-54938D01*
X104828Y-26638D01*
X110678Y-20788D01*
X118978Y-20788D01*
X124828Y-26638D01*
X124828Y-54938D01*
G37*
G36*
X104428Y-57012D02*
X95654Y-65788D01*
X83204Y-65788D01*
X74428Y-57012D01*
X74428Y-24562D01*
X83204Y-15788D01*
X95654Y-15788D01*
X104428Y-24562D01*
X104428Y-57012D01*
G37*
X904933Y-111418D02*
G54D12*
D03*
X904933Y-139433D02*
G54D12*
D03*
X880964Y-125386D02*
G54D12*
D03*
X962877Y-125308D02*
G54D12*
D03*
X962877Y-153324D02*
G54D12*
D03*
X938908Y-139277D02*
G54D12*
D03*
X917197Y-166219D02*
G54D12*
D03*
X917197Y-242419D02*
G54D13*
D03*
X945188Y-177928D02*
G54D12*
D03*
X945188Y-254128D02*
G54D13*
D03*
X794678Y-63131D02*
G54D12*
D03*
X794678Y-139331D02*
G54D12*
D03*
G54D14*
X904933Y-139433D02*
X938752Y-139433D01*
X938908Y-139277D01*
G54D14*
X904933Y-111418D02*
X948986Y-111418D01*
X962877Y-125308D01*
X854430Y-125299D02*
G54D12*
D03*
X854430Y-153314D02*
G54D12*
D03*
X830461Y-139267D02*
G54D12*
D03*
X886463Y-166191D02*
G54D12*
D03*
X886463Y-242391D02*
G54D13*
D03*
G54D14*
X854430Y-153314D02*
X854430Y-183708D01*
X854494Y-183772D01*
X824288Y-168428D02*
G54D12*
D03*
X824288Y-244628D02*
G54D13*
D03*
G54D14*
X824288Y-168428D02*
X853782Y-168428D01*
X853856Y-168503D01*
G54D14*
X854430Y-125299D02*
X880877Y-125299D01*
X880964Y-125386D01*
G54D14*
X938795Y-82072D02*
X938795Y-110465D01*
X938756Y-110503D01*
X908878Y-82131D02*
G54D12*
D03*
X832678Y-82131D02*
G54D12*
D03*
X908778Y-53231D02*
G54D12*
D03*
X832578Y-53231D02*
G54D12*
D03*
G54D14*
X854430Y-125299D02*
X854430Y-103883D01*
X832678Y-82131D01*
X794588Y-168228D02*
G54D12*
D03*
X794588Y-244428D02*
G54D13*
D03*
G54D14*
X832578Y-53231D02*
X846384Y-53231D01*
X875356Y-82203D01*
X908806Y-82203D01*
X908878Y-82131D01*
G54D14*
X832678Y-82131D02*
X802578Y-82131D01*
X794678Y-74231D01*
X794678Y-63131D01*
G54D14*
X794678Y-139331D02*
X794678Y-168138D01*
X794588Y-168228D01*
G54D14*
X830461Y-139267D02*
X794742Y-139267D01*
X794678Y-139331D01*
G54D14*
X854494Y-209172D02*
X864266Y-209172D01*
X886463Y-186975D01*
X886463Y-166191D01*
G54D14*
X908878Y-82131D02*
X908878Y-107472D01*
X904933Y-111418D01*
G54D14*
X916897Y-166219D02*
X916897Y-140762D01*
X885656Y-392092D02*
G54D12*
D03*
X885656Y-364076D02*
G54D12*
D03*
X909624Y-378123D02*
G54D12*
D03*
X827712Y-378201D02*
G54D12*
D03*
X827712Y-350186D02*
G54D12*
D03*
X851681Y-364232D02*
G54D12*
D03*
X868892Y-335306D02*
G54D12*
D03*
X868892Y-259106D02*
G54D13*
D03*
X782795Y-350037D02*
G54D12*
D03*
X782795Y-426237D02*
G54D13*
D03*
X995911Y-440378D02*
G54D12*
D03*
X995911Y-364178D02*
G54D12*
D03*
G54D14*
X885656Y-364076D02*
X851837Y-364076D01*
X851681Y-364232D01*
G54D14*
X885656Y-392092D02*
X841603Y-392092D01*
X827712Y-378201D01*
X936159Y-378210D02*
G54D12*
D03*
X936159Y-350195D02*
G54D12*
D03*
X960128Y-364242D02*
G54D12*
D03*
X904126Y-335334D02*
G54D12*
D03*
X904126Y-259134D02*
G54D13*
D03*
G54D14*
X936159Y-350195D02*
X936159Y-319801D01*
X936095Y-319737D01*
X966301Y-335081D02*
G54D12*
D03*
X966301Y-258881D02*
G54D13*
D03*
G54D14*
X966301Y-335081D02*
X936808Y-335081D01*
X936732Y-335006D01*
G54D14*
X936159Y-378210D02*
X909712Y-378210D01*
X909624Y-378123D01*
G54D14*
X851794Y-419453D02*
X851794Y-393044D01*
X851832Y-393006D01*
X881711Y-419394D02*
G54D12*
D03*
X957911Y-419394D02*
G54D12*
D03*
X881811Y-449231D02*
G54D12*
D03*
X958011Y-449231D02*
G54D12*
D03*
G54D14*
X936159Y-378210D02*
X936159Y-399627D01*
X957911Y-419394D01*
X996001Y-335281D02*
G54D12*
D03*
X996001Y-259081D02*
G54D13*
D03*
G54D14*
X995911Y-364178D02*
X995911Y-335372D01*
X996001Y-335281D01*
G54D14*
X960128Y-364242D02*
X995847Y-364242D01*
X995911Y-364178D01*
G54D14*
X936095Y-294337D02*
X926323Y-294337D01*
X904126Y-316534D01*
X904126Y-335334D01*
G54D14*
X881711Y-419394D02*
X881711Y-396037D01*
X885656Y-392092D01*
G54D14*
X868892Y-335306D02*
X868892Y-361647D01*
G54D14*
X1025894Y-364238D02*
X996070Y-364337D01*
X995911Y-364178D01*
X992279Y-126231D02*
G54D12*
D03*
X992279Y-50031D02*
G54D12*
D03*
G54D14*
X992279Y-126231D02*
X992279Y-157356D01*
X992394Y-157472D01*
X764679Y-319831D02*
G54D12*
D03*
X764679Y-243631D02*
G54D12*
D03*
G54D14*
X764694Y-139172D02*
X764679Y-243631D01*
G54D14*
X764694Y-113772D02*
X788219Y-113772D01*
X794678Y-120231D01*
X794678Y-139331D01*
G54D14*
X782795Y-350037D02*
X827712Y-350186D01*
G54D14*
X827401Y-320081D02*
X827401Y-349875D01*
X827712Y-350186D01*
G54D14*
X992394Y-182872D02*
X950132Y-182872D01*
X945188Y-177928D01*
G54D14*
X962877Y-153324D02*
X962877Y-180624D01*
G54D14*
X827401Y-294681D02*
X770828Y-294681D01*
X764679Y-300831D01*
X764679Y-319831D01*
G54D14*
X881711Y-419394D02*
X881711Y-449131D01*
X881811Y-449231D01*
X328093Y-151027D02*
G54D12*
D03*
X328093Y-179042D02*
G54D12*
D03*
X304124Y-164996D02*
G54D12*
D03*
X386036Y-164918D02*
G54D12*
D03*
X386036Y-192933D02*
G54D12*
D03*
X362068Y-178886D02*
G54D12*
D03*
X340356Y-205431D02*
G54D12*
D03*
X340356Y-281631D02*
G54D13*
D03*
X368347Y-225538D02*
G54D12*
D03*
X368347Y-301738D02*
G54D13*
D03*
X217838Y-102741D02*
G54D12*
D03*
X217838Y-178941D02*
G54D12*
D03*
G54D14*
X328093Y-179042D02*
X361911Y-179042D01*
X362068Y-178886D01*
G54D14*
X328093Y-151027D02*
X372146Y-151027D01*
X386036Y-164918D01*
X277589Y-164908D02*
G54D12*
D03*
X277589Y-192924D02*
G54D12*
D03*
X253621Y-178877D02*
G54D12*
D03*
X309622Y-205403D02*
G54D12*
D03*
X309622Y-281603D02*
G54D13*
D03*
G54D14*
X277589Y-192924D02*
X277589Y-223317D01*
X277653Y-223381D01*
X247447Y-208038D02*
G54D12*
D03*
X247447Y-284238D02*
G54D13*
D03*
G54D14*
X247447Y-208038D02*
X276941Y-208038D01*
X277016Y-208112D01*
G54D14*
X277589Y-164908D02*
X304036Y-164908D01*
X304124Y-164996D01*
G54D14*
X361954Y-121681D02*
X361954Y-150074D01*
X361916Y-150112D01*
X332038Y-121740D02*
G54D12*
D03*
X255838Y-121740D02*
G54D12*
D03*
X352138Y-82522D02*
G54D12*
D03*
X275938Y-82522D02*
G54D12*
D03*
G54D14*
X277589Y-164908D02*
X277589Y-143492D01*
X255838Y-121740D01*
X217747Y-207838D02*
G54D12*
D03*
X217747Y-284038D02*
G54D13*
D03*
G54D14*
X255838Y-121740D02*
X225738Y-121740D01*
X217838Y-113841D01*
X217838Y-102741D01*
G54D14*
X217838Y-178941D02*
X217838Y-207747D01*
X217747Y-207838D01*
G54D14*
X253621Y-178877D02*
X217902Y-178877D01*
X217838Y-178941D01*
G54D14*
X277653Y-248781D02*
X287425Y-248781D01*
X309622Y-226584D01*
X309622Y-205403D01*
G54D14*
X332038Y-121740D02*
X332038Y-147082D01*
X328093Y-151027D01*
G54D14*
X340056Y-205431D02*
X340056Y-181472D01*
X340316Y-181212D01*
X308815Y-431701D02*
G54D12*
D03*
X308815Y-403686D02*
G54D12*
D03*
X332784Y-417732D02*
G54D12*
D03*
X250871Y-417810D02*
G54D12*
D03*
X250871Y-389795D02*
G54D12*
D03*
X274840Y-403842D02*
G54D12*
D03*
X292051Y-374916D02*
G54D12*
D03*
X292051Y-298716D02*
G54D13*
D03*
X205954Y-389547D02*
G54D12*
D03*
X205954Y-465747D02*
G54D13*
D03*
X417470Y-480087D02*
G54D12*
D03*
X417470Y-403887D02*
G54D12*
D03*
G54D14*
X308815Y-403686D02*
X274996Y-403686D01*
X274840Y-403842D01*
G54D14*
X308815Y-431701D02*
X264762Y-431701D01*
X250871Y-417810D01*
X359318Y-417820D02*
G54D12*
D03*
X359318Y-389804D02*
G54D12*
D03*
X383287Y-403851D02*
G54D12*
D03*
X327286Y-374944D02*
G54D12*
D03*
X327286Y-298744D02*
G54D13*
D03*
G54D14*
X359318Y-389804D02*
X359318Y-359411D01*
X359254Y-359347D01*
X389460Y-374690D02*
G54D12*
D03*
X389460Y-298490D02*
G54D13*
D03*
G54D14*
X389460Y-374690D02*
X359967Y-374690D01*
X359892Y-374616D01*
G54D14*
X359318Y-417820D02*
X332871Y-417820D01*
X332784Y-417732D01*
G54D14*
X274954Y-461047D02*
X274954Y-432654D01*
X274992Y-432616D01*
X304870Y-460988D02*
G54D12*
D03*
X381070Y-460988D02*
G54D12*
D03*
X283070Y-494306D02*
G54D12*
D03*
X359270Y-494306D02*
G54D12*
D03*
G54D14*
X359318Y-417820D02*
X359318Y-439236D01*
X381070Y-460988D01*
X417560Y-374890D02*
G54D12*
D03*
X417560Y-298690D02*
G54D13*
D03*
G54D14*
X383287Y-403851D02*
X417470Y-403887D01*
G54D14*
X359254Y-333947D02*
X349482Y-333947D01*
X327286Y-356144D01*
X327286Y-374944D01*
G54D14*
X304870Y-460988D02*
X304870Y-435646D01*
X308815Y-431701D01*
G54D14*
X292051Y-374916D02*
X292051Y-401256D01*
X291792Y-401516D01*
X415438Y-171422D02*
G54D12*
D03*
X415438Y-95222D02*
G54D12*
D03*
G54D14*
X415438Y-168247D02*
X415438Y-196966D01*
X415554Y-197081D01*
X187838Y-334040D02*
G54D12*
D03*
X187838Y-257840D02*
G54D12*
D03*
G54D14*
X187854Y-204081D02*
X187838Y-259825D01*
G54D14*
X205954Y-389547D02*
X250623Y-389547D01*
X250871Y-389795D01*
G54D14*
X250561Y-359690D02*
X250561Y-389484D01*
X250871Y-389795D01*
G54D14*
X386036Y-192933D02*
X386036Y-224599D01*
G54D14*
X250561Y-334290D02*
X193988Y-334290D01*
X187838Y-331312D01*
X187838Y-336025D01*
X485928Y-55772D02*
G54D19*
D03*
G36*
X507929Y-42382D02*
X515534Y-34777D01*
X526324Y-34777D01*
X533929Y-42382D01*
X533929Y-69172D01*
X526324Y-76777D01*
X515534Y-76777D01*
X507929Y-69172D01*
X507929Y-42382D01*
G37*
X555928Y-55772D02*
G54D19*
D03*
X485944Y-125899D02*
G54D19*
D03*
X555944Y-125899D02*
G54D19*
D03*
X1240090Y-547005D02*
G54D12*
D03*
X1214690Y-547005D02*
G54D12*
D03*
X1300303Y-702290D02*
G54D12*
D03*
X1300303Y-730305D02*
G54D12*
D03*
X1276334Y-716258D02*
G54D12*
D03*
X1269102Y-748319D02*
G54D12*
D03*
X1269102Y-824519D02*
G54D12*
D03*
X1326664Y-776600D02*
G54D12*
D03*
X1326664Y-852800D02*
G54D13*
D03*
G54D14*
X1269102Y-748319D02*
X1281892Y-748319D01*
X1300303Y-730305D01*
X1208102Y-670538D02*
G54D12*
D03*
X1208102Y-746737D02*
G54D12*
D03*
X1238101Y-594519D02*
G54D12*
D03*
X1238101Y-670718D02*
G54D12*
D03*
X1267801Y-594419D02*
G54D12*
D03*
X1267801Y-670618D02*
G54D12*
D03*
X1238108Y-748219D02*
G54D12*
D03*
X1238108Y-824419D02*
G54D13*
D03*
X1325845Y-656075D02*
G54D12*
D03*
X1300445Y-656075D02*
G54D12*
D03*
X1202170Y-878832D02*
G54D12*
D03*
X1176770Y-878832D02*
G54D12*
D03*
X1208661Y-610806D02*
G54D12*
D03*
X1132461Y-610806D02*
G54D12*
D03*
G54D14*
X1238101Y-670718D02*
X1238108Y-748219D01*
G54D14*
X1276334Y-716258D02*
X1239768Y-716258D01*
X1239652Y-716375D01*
G54D14*
X1300303Y-702290D02*
X1300445Y-656075D01*
G54D14*
X1267801Y-670618D02*
X1298895Y-670618D01*
X1218425Y-301652D02*
G54D11*
D03*
X1218425Y-261652D02*
G54D11*
D03*
X1218425Y-221652D02*
G54D10*
D03*
X1294228Y-301255D02*
G54D11*
D03*
X1294228Y-261255D02*
G54D11*
D03*
X1294228Y-221255D02*
G54D11*
D03*
X1267731Y-87993D02*
G54D12*
D03*
X1267731Y-164193D02*
G54D12*
D03*
X1237287Y-164194D02*
G54D12*
D03*
X1237287Y-87994D02*
G54D13*
D03*
X1297490Y-164193D02*
G54D12*
D03*
X1297490Y-87993D02*
G54D13*
D03*
G54D14*
X1297490Y-164193D02*
X1267731Y-164193D01*
X1207231Y-87896D02*
G54D12*
D03*
X1207231Y-164096D02*
G54D12*
D03*
G54D14*
X1207231Y-87896D02*
X1207231Y-41256D01*
X1207148Y-41172D01*
G54D14*
X1218425Y-301652D02*
X1234376Y-301652D01*
X1275182Y-260847D01*
X1293820Y-260847D01*
X1294228Y-261255D01*
X1242980Y-417222D02*
G54D12*
D03*
X1242980Y-493422D02*
G54D12*
D03*
X1274230Y-417222D02*
G54D12*
D03*
X1274230Y-493422D02*
G54D13*
D03*
X1212020Y-493422D02*
G54D12*
D03*
X1212020Y-417222D02*
G54D13*
D03*
G54D14*
X1294228Y-261255D02*
X1325720Y-261255D01*
X1326047Y-260928D01*
G54D14*
X1242980Y-417222D02*
X1274230Y-417222D01*
G54D14*
X1294228Y-301255D02*
X1294228Y-368116D01*
X1282394Y-379950D01*
X1269873Y-379922D01*
G54D14*
X1218425Y-261652D02*
X1194498Y-285546D01*
X1194507Y-326309D01*
X1218278Y-350156D01*
G54D14*
X706219Y-371096D02*
X713065Y-371096D01*
X721222Y-379253D01*
X721222Y-446053D01*
X710322Y-456953D01*
X698200Y-457128D01*
G54D14*
X126037Y-389793D02*
X133678Y-389793D01*
X141835Y-397950D01*
X141835Y-464750D01*
X130935Y-475650D01*
X117400Y-475650D01*
X117225Y-475825D01*
G54D14*
X1207231Y-164096D02*
X1207231Y-178606D01*
X1221075Y-192450D01*
X1256000Y-192450D01*
X1267510Y-180941D01*
X1267731Y-164193D01*
G54D14*
X617420Y-131687D02*
X617420Y-166196D01*
X631264Y-180041D01*
X666189Y-180041D01*
X677699Y-168531D01*
X677920Y-155037D01*
G54D14*
X36445Y-164906D02*
X36445Y-179018D01*
X50289Y-192862D01*
X85214Y-192862D01*
X96724Y-181353D01*
X96724Y-168002D01*
X96945Y-167781D01*
G54D14*
X908778Y-53231D02*
X908778Y-46972D01*
X878453Y-16647D01*
X390041Y-17047D01*
X352094Y-54944D01*
X352138Y-82522D01*
G54D14*
X1025894Y-338838D02*
X1025413Y-26862D01*
G54D14*
X448354Y-349147D02*
X448751Y-58313D01*
G54D14*
X89428Y-40788D02*
X84364Y-40788D01*
X36445Y-88706D01*
G54D14*
X1122301Y-115106D02*
X1122301Y-167606D01*
G54D14*
X1073901Y-115106D02*
X1073901Y-167606D01*
G54D14*
X1122301Y-426806D02*
X1122301Y-476806D01*
G54D14*
X1073901Y-426806D02*
X1073901Y-476806D01*
G54D14*
X1073901Y-219406D02*
X1073901Y-216006D01*
X1122301Y-167606D01*
G54D14*
X1073901Y-271306D02*
X1073901Y-267806D01*
X1122301Y-219406D01*
G54D14*
X1073901Y-323806D02*
X1073901Y-319706D01*
X1122301Y-271306D01*
G54D14*
X1073901Y-375506D02*
X1073901Y-372206D01*
X1122301Y-323806D01*
G54D14*
X1122301Y-271306D02*
X1168138Y-270116D01*
X1168898Y-269356D01*
G54D14*
X1122301Y-115106D02*
X1168762Y-115106D01*
X1168897Y-114971D01*
G54D14*
X1168898Y-334444D02*
X1132939Y-334444D01*
X1122301Y-323806D01*
G54D14*
X1122301Y-219406D02*
X1154554Y-219406D01*
X1168898Y-205063D01*
G54D14*
X530532Y-161756D02*
X495288Y-161756D01*
X495185Y-161859D01*
G54D14*
X545985Y-304153D02*
X495388Y-304153D01*
X495285Y-304256D01*
G54D14*
X535213Y-445865D02*
X497588Y-445865D01*
X497485Y-445968D01*
X486228Y-196472D02*
G54D19*
D03*
X521228Y-196472D02*
G54D19*
D03*
X556228Y-196472D02*
G54D19*
D03*
X486244Y-266599D02*
G54D19*
D03*
X556244Y-266599D02*
G54D19*
D03*
X486028Y-339684D02*
G54D19*
D03*
X521028Y-339684D02*
G54D19*
D03*
X556028Y-339684D02*
G54D19*
D03*
X486044Y-409812D02*
G54D19*
D03*
X556044Y-409812D02*
G54D19*
D03*
X187845Y-72606D02*
G54D12*
D03*
X187845Y-148806D02*
G54D12*
D03*
X263946Y-40306D02*
G54D12*
D03*
X187746Y-40306D02*
G54D12*
D03*
X157494Y-72237D02*
G54D12*
D03*
X157494Y-46837D02*
G54D13*
D03*
G36*
X335547Y-54644D02*
X329697Y-60494D01*
X321397Y-60494D01*
X315547Y-54644D01*
X315547Y-26344D01*
X321397Y-20494D01*
X329697Y-20494D01*
X335547Y-26344D01*
X335547Y-54644D01*
G37*
G36*
X315147Y-56719D02*
X306372Y-65494D01*
X293922Y-65494D01*
X285147Y-56719D01*
X285147Y-24269D01*
X293922Y-15494D01*
X306372Y-15494D01*
X315147Y-24269D01*
X315147Y-56719D01*
G37*
G54D14*
X187854Y-178681D02*
X217578Y-178681D01*
X217838Y-178941D01*
G54D14*
X157494Y-72237D02*
X187477Y-72237D01*
X187845Y-72606D01*
X187845Y-40405D01*
X187746Y-40306D01*
G54D14*
X263946Y-40306D02*
X299958Y-40306D01*
X300147Y-40494D01*
G54D14*
X187845Y-148806D02*
X172557Y-148806D01*
X165610Y-155753D01*
X165610Y-196353D01*
X173310Y-204053D01*
X187826Y-204053D01*
X187854Y-204081D01*
G54D14*
X187838Y-257840D02*
X187838Y-276940D01*
X164000Y-300788D01*
X163956Y-351181D01*
X179631Y-366856D01*
X179578Y-495162D01*
X137788Y-536953D01*
X93488Y-536953D01*
X83088Y-526553D01*
X83088Y-457753D01*
X31610Y-33806D02*
G54D20*
D03*
X1316710Y-31906D02*
G54D20*
D03*
X32347Y-962512D02*
G54D20*
D03*
X881240Y-893001D02*
G54D12*
D03*
X841240Y-893001D02*
G54D12*
D03*
X187854Y-204081D02*
G54D12*
D03*
X187854Y-178681D02*
G54D12*
D03*
X250561Y-359691D02*
G54D12*
D03*
X250561Y-334290D02*
G54D12*
D03*
X66138Y-390192D02*
G54D12*
D03*
X66138Y-339392D02*
G54D12*
D03*
X96038Y-339192D02*
G54D12*
D03*
X96038Y-389992D02*
G54D12*
D03*
X126038Y-389793D02*
G54D12*
D03*
X126037Y-338993D02*
G54D12*
D03*
X617412Y-321096D02*
G54D12*
D03*
X617413Y-371896D02*
G54D12*
D03*
X647113Y-371496D02*
G54D12*
D03*
X647113Y-320696D02*
G54D12*
D03*
X677013Y-320496D02*
G54D12*
D03*
X677013Y-371296D02*
G54D12*
D03*
X707013Y-371096D02*
G54D12*
D03*
X707012Y-320296D02*
G54D12*
D03*
X1269078Y-350156D02*
G54D12*
D03*
X1218278Y-350156D02*
G54D12*
D03*
X1269873Y-379922D02*
G54D12*
D03*
X1219073Y-379922D02*
G54D12*
D03*
X415553Y-225456D02*
G54D12*
D03*
X415554Y-200056D02*
G54D12*
D03*
X277653Y-248781D02*
G54D12*
D03*
X277653Y-223381D02*
G54D12*
D03*
X361954Y-121681D02*
G54D12*
D03*
X387354Y-121681D02*
G54D13*
D03*
X274954Y-461047D02*
G54D12*
D03*
X249554Y-461047D02*
G54D13*
D03*
X359254Y-359347D02*
G54D12*
D03*
X359254Y-333947D02*
G54D12*
D03*
X448354Y-374647D02*
G54D12*
D03*
X448354Y-349247D02*
G54D12*
D03*
X530847Y-445865D02*
G54D12*
D03*
X556247Y-445865D02*
G54D12*
D03*
X530632Y-304153D02*
G54D12*
D03*
X556032Y-304153D02*
G54D12*
D03*
X530532Y-161756D02*
G54D12*
D03*
X555932Y-161756D02*
G54D12*
D03*
X495185Y-161759D02*
G54D12*
D03*
X469785Y-161759D02*
G54D13*
D03*
X495285Y-304156D02*
G54D12*
D03*
X469885Y-304156D02*
G54D13*
D03*
X497485Y-445868D02*
G54D12*
D03*
X472085Y-445868D02*
G54D13*
D03*
X938795Y-82072D02*
G54D12*
D03*
X964195Y-82072D02*
G54D13*
D03*
X764694Y-139172D02*
G54D12*
D03*
X764694Y-113772D02*
G54D12*
D03*
X854494Y-209172D02*
G54D12*
D03*
X854494Y-183772D02*
G54D12*
D03*
X992394Y-182872D02*
G54D12*
D03*
X992394Y-157472D02*
G54D12*
D03*
X827401Y-320081D02*
G54D12*
D03*
X827401Y-294681D02*
G54D12*
D03*
X1025894Y-364238D02*
G54D12*
D03*
X1025894Y-338838D02*
G54D12*
D03*
X851794Y-419453D02*
G54D12*
D03*
X826394Y-419453D02*
G54D13*
D03*
X936095Y-319738D02*
G54D12*
D03*
X936095Y-294337D02*
G54D12*
D03*
X1168898Y-399928D02*
G54D12*
D03*
X1168898Y-374528D02*
G54D13*
D03*
X1168898Y-334444D02*
G54D12*
D03*
X1168898Y-309044D02*
G54D13*
D03*
X1168898Y-269357D02*
G54D12*
D03*
X1168898Y-243956D02*
G54D13*
D03*
X1168898Y-205063D02*
G54D12*
D03*
X1168898Y-179663D02*
G54D13*
D03*
X1168897Y-115368D02*
G54D12*
D03*
X1168897Y-140768D02*
G54D13*
D03*
X1326047Y-260928D02*
G54D12*
D03*
X1326047Y-235528D02*
G54D13*
D03*
G54D14*
X1325845Y-656075D02*
X1325845Y-261130D01*
X1326047Y-260928D01*
G54D14*
X1219073Y-379922D02*
X1242132Y-379922D01*
G36*
X1180650Y-971096D02*
X1174800Y-976946D01*
X1166500Y-976946D01*
X1160650Y-971096D01*
X1160650Y-942796D01*
X1166500Y-936946D01*
X1174800Y-936946D01*
X1180650Y-942796D01*
X1180650Y-971096D01*
G37*
G36*
X1160250Y-973171D02*
X1151476Y-981946D01*
X1139026Y-981946D01*
X1130250Y-973171D01*
X1130250Y-940721D01*
X1139026Y-931946D01*
X1151476Y-931946D01*
X1160250Y-940721D01*
X1160250Y-973171D01*
G37*
G54D21*
X958117Y-478214D02*
X806541Y-478116D01*
X750488Y-534169D01*
X627584Y-534238D01*
X612953Y-519606D01*
X359256Y-519562D01*
X595352Y-766617D02*
G54D22*
D03*
X519152Y-766616D02*
G54D22*
D03*
X595352Y-690417D02*
G54D22*
D03*
X595352Y-639617D02*
G54D22*
D03*
X595352Y-588817D02*
G54D22*
D03*
X519152Y-690417D02*
G54D22*
D03*
X519152Y-639617D02*
G54D22*
D03*
X519152Y-588817D02*
G54D22*
D03*
X1046384Y-778697D02*
G54D12*
D03*
X1074400Y-778697D02*
G54D12*
D03*
X1060353Y-802666D02*
G54D13*
D03*
X1100019Y-738134D02*
G54D12*
D03*
X1023819Y-738134D02*
G54D12*
D03*
X1100019Y-706268D02*
G54D12*
D03*
X1023819Y-706268D02*
G54D12*
D03*
X1099819Y-658778D02*
G54D12*
D03*
X1023619Y-658778D02*
G54D12*
D03*
X1023722Y-816464D02*
G54D12*
D03*
X998322Y-816464D02*
G54D12*
D03*
G36*
X841459Y-593552D02*
X841459Y-623552D01*
X811459Y-623552D01*
X811459Y-593552D01*
X841459Y-593552D01*
G37*
X826459Y-633952D02*
G54D12*
D03*
X826459Y-659352D02*
G54D12*
D03*
X826459Y-684752D02*
G54D13*
D03*
X902659Y-684752D02*
G54D12*
D03*
X902659Y-659352D02*
G54D12*
D03*
X902658Y-633952D02*
G54D12*
D03*
X902659Y-608552D02*
G54D12*
D03*
X928062Y-541229D02*
G54D13*
D03*
X902662Y-541229D02*
G54D12*
D03*
X979578Y-735359D02*
G54D12*
D03*
X979578Y-659159D02*
G54D12*
D03*
X915167Y-775114D02*
G54D12*
D03*
X943182Y-775113D02*
G54D12*
D03*
X929136Y-799082D02*
G54D13*
D03*
X838073Y-540387D02*
G54D13*
D03*
X863473Y-540387D02*
G54D12*
D03*
X877510Y-724359D02*
G54D12*
D03*
X822741Y-724359D02*
G54D12*
D03*
X947420Y-894606D02*
G54D13*
D03*
X947420Y-869206D02*
G54D12*
D03*
X884869Y-756097D02*
G54D12*
D03*
X884869Y-832297D02*
G54D13*
D03*
X763388Y-828725D02*
G54D12*
D03*
X763388Y-904925D02*
G54D13*
D03*
X822591Y-764629D02*
G54D12*
D03*
X797191Y-764629D02*
G54D12*
D03*
X763366Y-684444D02*
G54D12*
D03*
X763366Y-659044D02*
G54D12*
D03*
X763388Y-723950D02*
G54D12*
D03*
X763388Y-800150D02*
G54D13*
D03*
G54D14*
X826459Y-659352D02*
X763674Y-659352D01*
X763366Y-659044D01*
G54D14*
X763366Y-684444D02*
X763366Y-723928D01*
X763388Y-723950D01*
G54D14*
X797191Y-764629D02*
X797891Y-660303D01*
X798025Y-660169D01*
G54D14*
X822591Y-764629D02*
X823291Y-724909D01*
X822741Y-724359D01*
X831071Y-825533D02*
G54D12*
D03*
X856471Y-825533D02*
G54D12*
D03*
X804854Y-850991D02*
G54D12*
D03*
X804854Y-927191D02*
G54D13*
D03*
G54D14*
X856272Y-783662D02*
X856366Y-616630D01*
X848287Y-608552D01*
X826459Y-608552D01*
G36*
X964663Y-971425D02*
X958813Y-977275D01*
X950513Y-977275D01*
X944663Y-971425D01*
X944663Y-943125D01*
X950513Y-937275D01*
X958813Y-937275D01*
X964663Y-943125D01*
X964663Y-971425D01*
G37*
G36*
X944263Y-973500D02*
X935488Y-982275D01*
X923038Y-982275D01*
X914263Y-973500D01*
X914263Y-941050D01*
X923038Y-932275D01*
X935488Y-932275D01*
X944263Y-941050D01*
X944263Y-973500D01*
G37*
X798319Y-557795D02*
G54D13*
D03*
X758319Y-557795D02*
G54D12*
D03*
G36*
X927479Y-590973D02*
X933037Y-585415D01*
X940921Y-585415D01*
X946479Y-590973D01*
X946479Y-617857D01*
X940921Y-623415D01*
X933037Y-623415D01*
X927479Y-617857D01*
X927479Y-590973D01*
G37*
G36*
X946879Y-588483D02*
X955947Y-579415D01*
X968811Y-579415D01*
X977879Y-588483D01*
X977879Y-620347D01*
X968811Y-629415D01*
X955947Y-629415D01*
X946879Y-620347D01*
X946879Y-588483D01*
G37*
G36*
X972279Y-588483D02*
X981347Y-579415D01*
X994211Y-579415D01*
X1003279Y-588483D01*
X1003279Y-620347D01*
X994211Y-629415D01*
X981347Y-629415D01*
X972279Y-620347D01*
X972279Y-588483D01*
G37*
G54D14*
X1267801Y-594419D02*
X1238201Y-594419D01*
X1238101Y-594519D01*
X1224949Y-594519D01*
X1208661Y-610806D01*
X1208661Y-672359D01*
X1208102Y-672919D01*
G36*
X577274Y-400997D02*
X584879Y-393392D01*
X595669Y-393392D01*
X603274Y-400997D01*
X603274Y-427787D01*
X595669Y-435392D01*
X584879Y-435392D01*
X577274Y-427787D01*
X577274Y-400997D01*
G37*
G36*
X574270Y-528330D02*
X606270Y-528330D01*
X606270Y-560330D01*
X574270Y-560330D01*
X574270Y-528330D01*
G37*
G54D14*
X590672Y-20441D02*
X590270Y-414391D01*
G54D14*
X902659Y-684752D02*
X883727Y-684752D01*
X876210Y-677234D01*
X876210Y-553110D01*
X863473Y-540387D01*
G54D14*
X902659Y-608552D02*
X902662Y-541229D01*
G36*
X596047Y-971431D02*
X590197Y-977281D01*
X581897Y-977281D01*
X576047Y-971431D01*
X576047Y-943131D01*
X581897Y-937281D01*
X590197Y-937281D01*
X596047Y-943131D01*
X596047Y-971431D01*
G37*
G36*
X575647Y-973506D02*
X566872Y-982281D01*
X554422Y-982281D01*
X545647Y-973506D01*
X545647Y-941056D01*
X554422Y-932281D01*
X566872Y-932281D01*
X575647Y-941056D01*
X575647Y-973506D01*
G37*
X1316635Y-961206D02*
G54D20*
D03*
G54D14*
X957911Y-419394D02*
X974926Y-419394D01*
X995911Y-440378D01*
G54D14*
X41422Y-515428D02*
X41422Y-573662D01*
X1132373Y-687228D02*
G54D12*
D03*
X1132373Y-763428D02*
G54D12*
D03*
X1036894Y-866104D02*
G54D12*
D03*
X1064909Y-866104D02*
G54D12*
D03*
X1050863Y-890073D02*
G54D13*
D03*
X1103946Y-865718D02*
G54D12*
D03*
X1103946Y-891118D02*
G54D13*
D03*
G54D14*
X1214690Y-547005D02*
X1175003Y-586731D01*
X1175003Y-716072D01*
X1165203Y-725872D01*
X1112372Y-725812D01*
X1100019Y-738134D01*
X1014439Y-926825D02*
G54D12*
D03*
X1090639Y-926825D02*
G54D13*
D03*
G54D14*
X758319Y-557795D02*
X817322Y-498953D01*
X949263Y-499150D01*
X1043510Y-593303D01*
X1043447Y-638972D01*
X1023619Y-658778D01*
G54D21*
X958011Y-449231D02*
X958117Y-478214D01*
X1058181Y-578184D01*
X1099872Y-578234D01*
X1132461Y-610806D01*
G54D14*
X902659Y-659352D02*
X959592Y-659352D01*
X973278Y-659159D01*
X973278Y-659122D01*
X1269230Y-891473D02*
G54D13*
D03*
X1269230Y-866073D02*
G54D12*
D03*
X1274011Y-547727D02*
G54D13*
D03*
X1299411Y-547727D02*
G54D12*
D03*
G54D14*
X1323994Y-519941D02*
X1267154Y-519941D01*
X1240090Y-547005D01*
G54D14*
X1299411Y-547727D02*
X1299411Y-581036D01*
X1286291Y-594156D01*
X1268064Y-594156D01*
X1267801Y-594419D01*
X415275Y-55628D02*
G54D12*
D03*
X389875Y-55628D02*
G54D13*
D03*
G54D14*
X415553Y-225456D02*
X368347Y-225538D01*
G54D14*
X764679Y-243631D02*
X741878Y-266406D01*
X741778Y-345869D01*
X754875Y-358966D01*
X754875Y-473109D01*
X731010Y-497175D01*
X698200Y-497128D01*
G54D14*
X947420Y-869206D02*
X947420Y-856651D01*
X884653Y-793784D01*
X884653Y-756313D01*
X884869Y-756097D01*
G54D14*
X884869Y-756097D02*
X884869Y-731718D01*
X877510Y-724359D01*
G54D14*
X915167Y-775114D02*
X884886Y-775114D01*
X884869Y-775097D01*
G54D14*
X943182Y-775113D02*
X943082Y-660663D01*
G36*
X27422Y-607706D02*
X21572Y-601856D01*
X21572Y-593556D01*
X27422Y-587706D01*
X55722Y-587706D01*
X61572Y-593556D01*
X61572Y-601856D01*
X55722Y-607706D01*
X27422Y-607706D01*
G37*
G36*
X25346Y-587306D02*
X16572Y-578531D01*
X16572Y-566081D01*
X25346Y-557306D01*
X57796Y-557306D01*
X66572Y-566081D01*
X66572Y-578531D01*
X57796Y-587306D01*
X25346Y-587306D01*
G37*
X151112Y-754856D02*
G54D12*
D03*
X179127Y-754856D02*
G54D12*
D03*
X165080Y-778825D02*
G54D12*
D03*
X88827Y-723612D02*
G54D12*
D03*
X165027Y-723612D02*
G54D12*
D03*
X66662Y-754714D02*
G54D12*
D03*
X41262Y-754714D02*
G54D12*
D03*
X192890Y-607134D02*
G54D12*
D03*
X192890Y-530934D02*
G54D12*
D03*
X204149Y-647293D02*
G54D12*
D03*
X178749Y-647292D02*
G54D12*
D03*
X218852Y-684319D02*
G54D23*
D03*
X218852Y-735119D02*
G54D24*
D03*
X269652Y-709719D02*
G54D23*
D03*
G54D21*
X66662Y-754714D02*
X151112Y-754856D01*
X270699Y-647290D02*
G54D12*
D03*
X245299Y-647290D02*
G54D12*
D03*
X270612Y-854894D02*
G54D12*
D03*
X194412Y-854894D02*
G54D13*
D03*
X270542Y-826725D02*
G54D12*
D03*
X194342Y-826725D02*
G54D13*
D03*
X298062Y-854729D02*
G54D12*
D03*
X323462Y-854729D02*
G54D12*
D03*
X295611Y-667652D02*
G54D12*
D03*
X371811Y-667652D02*
G54D12*
D03*
X283671Y-607328D02*
G54D12*
D03*
X283671Y-531128D02*
G54D12*
D03*
X222277Y-557798D02*
G54D12*
D03*
X222277Y-583198D02*
G54D13*
D03*
X254821Y-557798D02*
G54D12*
D03*
X254821Y-583198D02*
G54D13*
D03*
G54D21*
X192890Y-530934D02*
X283671Y-531128D01*
G54D21*
X222277Y-557798D02*
X254821Y-557798D01*
G54D21*
X238666Y-555459D02*
X238666Y-533038D01*
G36*
X55722Y-682360D02*
X61572Y-688210D01*
X61572Y-696510D01*
X55722Y-702360D01*
X27422Y-702360D01*
X21572Y-696510D01*
X21572Y-688210D01*
X27422Y-682360D01*
X55722Y-682360D01*
G37*
G36*
X57798Y-702760D02*
X66572Y-711534D01*
X66572Y-723984D01*
X57798Y-732760D01*
X25348Y-732760D01*
X16572Y-723984D01*
X16572Y-711534D01*
X25348Y-702760D01*
X57798Y-702760D01*
G37*
G54D21*
X41572Y-717760D02*
X41262Y-754414D01*
G54D21*
X283671Y-531128D02*
X347691Y-531128D01*
X359256Y-519562D01*
X359270Y-494306D01*
G36*
X796206Y-971725D02*
X790356Y-977575D01*
X782056Y-977575D01*
X776206Y-971725D01*
X776206Y-943425D01*
X782056Y-937575D01*
X790356Y-937575D01*
X796206Y-943425D01*
X796206Y-971725D01*
G37*
G36*
X775806Y-973800D02*
X767031Y-982575D01*
X754581Y-982575D01*
X745806Y-973800D01*
X745806Y-941350D01*
X754581Y-932575D01*
X767031Y-932575D01*
X775806Y-941350D01*
X775806Y-973800D01*
G37*
X611468Y-804603D02*
G54D19*
D03*
X611468Y-880803D02*
G54D19*
D03*
X672282Y-611373D02*
G54D12*
D03*
X700297Y-611373D02*
G54D12*
D03*
X686251Y-587404D02*
G54D13*
D03*
X648031Y-665980D02*
G54D12*
D03*
X648031Y-611211D02*
G54D12*
D03*
X729169Y-611197D02*
G54D12*
D03*
X729169Y-687397D02*
G54D12*
D03*
X728978Y-774062D02*
G54D12*
D03*
X703578Y-774062D02*
G54D13*
D03*
G54D14*
X760806Y-957575D02*
X729250Y-925928D01*
X729169Y-687397D01*
G54D14*
X672282Y-611373D02*
X648031Y-611211D01*
G54D25*
X560668Y-881803D02*
X560647Y-957281D01*
X82840Y-669142D02*
G54D11*
D03*
X139640Y-669142D02*
G54D11*
D03*
X82443Y-593735D02*
G54D11*
D03*
X139243Y-593735D02*
G54D11*
D03*
G54D14*
X102956Y-754669D02*
X102956Y-860806D01*
X122910Y-880759D01*
X333163Y-880559D01*
X395384Y-818372D01*
X395350Y-652428D01*
X408334Y-639466D01*
X519152Y-639617D01*
G54D21*
X82443Y-593735D02*
X82443Y-578482D01*
X104356Y-556569D01*
X165956Y-556469D01*
X192856Y-583669D01*
X192890Y-607134D01*
G36*
X708509Y-971053D02*
X702659Y-976903D01*
X694359Y-976903D01*
X688509Y-971053D01*
X688509Y-942753D01*
X694359Y-936903D01*
X702659Y-936903D01*
X708509Y-942753D01*
X708509Y-971053D01*
G37*
G36*
X688109Y-973128D02*
X679334Y-981903D01*
X666884Y-981903D01*
X658109Y-973128D01*
X658109Y-940678D01*
X666884Y-931903D01*
X679334Y-931903D01*
X688109Y-940678D01*
X688109Y-973128D01*
G37*
X270742Y-798325D02*
G54D12*
D03*
X194542Y-798325D02*
G54D13*
D03*
X135194Y-855087D02*
G54D12*
D03*
X58994Y-855087D02*
G54D13*
D03*
X135123Y-826919D02*
G54D12*
D03*
X58923Y-826919D02*
G54D13*
D03*
X164826Y-855122D02*
G54D12*
D03*
X164826Y-829722D02*
G54D12*
D03*
G54D21*
X164918Y-777425D02*
X164826Y-829722D01*
X135323Y-798519D02*
G54D12*
D03*
X59123Y-798519D02*
G54D13*
D03*
G54D21*
X164826Y-855122D02*
X135194Y-855087D01*
G54D14*
X275938Y-82522D02*
X292819Y-82522D01*
X332038Y-121740D01*
G54D14*
X485928Y-55772D02*
X415419Y-55772D01*
X415275Y-55628D01*
X415275Y-95059D01*
X415438Y-95222D01*
G54D14*
X419160Y-374890D02*
X448810Y-374890D01*
X449054Y-374647D01*
G54D21*
X135323Y-798519D02*
X103950Y-798519D01*
G54D14*
X88727Y-723612D02*
X88727Y-752017D01*
X88644Y-752100D01*
G54D14*
X1242980Y-493422D02*
X1212020Y-493422D01*
G36*
X266353Y-969661D02*
X257578Y-978436D01*
X245128Y-978436D01*
X236353Y-969661D01*
X236353Y-939211D01*
X245128Y-930436D01*
X257578Y-930436D01*
X266353Y-939211D01*
X266353Y-969661D01*
G37*
G36*
X240952Y-969661D02*
X232178Y-978436D01*
X219728Y-978436D01*
X210952Y-969661D01*
X210952Y-939211D01*
X219728Y-930436D01*
X232178Y-930436D01*
X240952Y-939211D01*
X240952Y-969661D01*
G37*
G36*
X215552Y-969661D02*
X206778Y-978436D01*
X194328Y-978436D01*
X185552Y-969661D01*
X185552Y-939211D01*
X194328Y-930436D01*
X206778Y-930436D01*
X215552Y-939211D01*
X215552Y-969661D01*
G37*
X158204Y-944434D02*
G54D12*
D03*
X82004Y-944434D02*
G54D13*
D03*
X158203Y-914668D02*
G54D12*
D03*
X82004Y-914668D02*
G54D13*
D03*
X341001Y-918606D02*
G54D13*
D03*
X417201Y-918606D02*
G54D12*
D03*
X422141Y-615329D02*
G54D12*
D03*
X422140Y-663351D02*
G54D12*
D03*
G36*
X467286Y-721476D02*
X435286Y-721476D01*
X435286Y-689476D01*
X467286Y-689476D01*
X467286Y-721476D01*
G37*
G36*
X438280Y-811501D02*
X406280Y-811501D01*
X406280Y-779501D01*
X438280Y-779501D01*
X438280Y-811501D01*
G37*
G54D21*
X595352Y-639617D02*
X622766Y-612745D01*
X622768Y-559928D01*
G54D21*
X758319Y-557795D02*
X604435Y-557995D01*
X590268Y-544328D01*
G54D25*
X595352Y-588817D02*
X572739Y-588817D01*
X563850Y-579928D01*
X563850Y-521828D01*
G54D25*
X648031Y-665980D02*
X648031Y-714147D01*
X625350Y-736828D01*
X548940Y-736828D01*
X519152Y-766616D01*
G54D25*
X611468Y-804603D02*
X580225Y-804603D01*
X562450Y-786828D01*
X562450Y-737528D01*
G54D25*
X595352Y-690417D02*
X647450Y-690328D01*
G54D21*
X464286Y-601328D02*
X464252Y-521342D01*
X435466Y-564164D02*
G54D13*
D03*
X435466Y-538764D02*
G54D12*
D03*
X514221Y-519398D02*
G54D12*
D03*
X514221Y-544798D02*
G54D13*
D03*
X464286Y-677528D02*
G54D12*
D03*
X464286Y-601328D02*
G54D12*
D03*
G54D21*
X519152Y-588817D02*
X537639Y-588817D01*
X558450Y-609628D01*
X558450Y-645728D01*
X539350Y-664828D01*
X506450Y-664828D01*
X489350Y-681928D01*
X489350Y-712928D01*
X470781Y-731497D01*
X470781Y-838892D01*
G54D21*
X519152Y-690417D02*
X519152Y-724926D01*
X493050Y-751028D01*
X493050Y-782828D01*
X507250Y-797028D01*
X531753Y-797028D01*
X569153Y-834428D01*
X648450Y-834428D01*
X673050Y-859028D01*
X673109Y-956903D01*
G54D21*
X671982Y-612573D02*
X671882Y-723396D01*
X628750Y-766428D01*
X595540Y-766428D01*
X595352Y-766617D01*
G54D21*
X200552Y-954436D02*
X200552Y-977630D01*
X209550Y-986628D01*
X418975Y-986628D01*
X449180Y-956346D01*
G54D25*
X505583Y-880940D02*
X611468Y-880803D01*
X560668Y-855303D02*
G54D13*
D03*
X560668Y-880703D02*
G54D12*
D03*
X611335Y-912350D02*
G54D12*
D03*
X585935Y-912350D02*
G54D13*
D03*
X301637Y-950511D02*
G54D13*
D03*
X327037Y-950511D02*
G54D12*
D03*
X417000Y-890862D02*
G54D12*
D03*
X391600Y-890862D02*
G54D13*
D03*
G54D21*
X178749Y-647292D02*
X178749Y-642927D01*
X158750Y-622928D01*
X125354Y-622928D01*
X82840Y-665442D01*
G54D21*
X139243Y-593735D02*
X139250Y-622028D01*
X315180Y-634716D02*
G54D11*
D03*
X371980Y-634715D02*
G54D11*
D03*
X314783Y-559309D02*
G54D11*
D03*
X371583Y-559309D02*
G54D11*
D03*
X449180Y-956346D02*
G54D11*
D03*
X505980Y-956346D02*
G54D11*
D03*
X448783Y-880940D02*
G54D11*
D03*
X505583Y-880940D02*
G54D11*
D03*
G54D14*
X831071Y-825533D02*
X831071Y-838808D01*
X819050Y-850828D01*
X805016Y-850828D01*
X804854Y-850991D01*
G54D14*
X555944Y-125899D02*
X555928Y-55772D01*
G54D14*
X556228Y-196472D02*
X556244Y-266599D01*
G54D14*
X556028Y-339684D02*
X556044Y-409812D01*
G54D21*
X435466Y-538764D02*
X435466Y-522040D01*
G54D14*
X304870Y-460988D02*
X304870Y-491506D01*
X302070Y-494306D01*
X283070Y-494306D01*
G54D14*
X1269078Y-350156D02*
X1256488Y-350156D01*
X1242609Y-364034D01*
X1242609Y-410851D01*
X1242980Y-417222D01*
X1069537Y-610710D02*
G54D13*
D03*
X1094937Y-610710D02*
G54D12*
D03*
G54D14*
X1132461Y-610806D02*
X1132461Y-685640D01*
X1132373Y-685728D01*
G54D14*
X902658Y-633952D02*
X956048Y-633952D01*
X962553Y-627447D01*
X962553Y-604589D01*
X962379Y-604415D01*
G54D14*
X700297Y-611373D02*
X724193Y-611373D01*
X729169Y-611197D01*
G54D14*
X758319Y-557795D02*
X758319Y-582760D01*
X809272Y-633712D01*
X826220Y-633712D01*
X826459Y-633952D01*
G54D14*
X1064909Y-866104D02*
X1103560Y-866104D01*
X1103946Y-865718D01*
G54D14*
X1176770Y-878832D02*
X1146491Y-878832D01*
G54D14*
X1269102Y-824519D02*
X1269102Y-865944D01*
X1269230Y-866073D01*
G54D14*
X1326664Y-776600D02*
X1297920Y-776600D01*
X1269102Y-805419D01*
X1269102Y-824519D01*
G54D14*
X1202170Y-878832D02*
X1202170Y-804150D01*
X1238102Y-768119D01*
X1238108Y-748219D01*
G54D14*
X1145250Y-956946D02*
X1145250Y-809588D01*
X1208102Y-746737D01*
G54D14*
X1132373Y-763428D02*
X1132373Y-777211D01*
X1104072Y-805512D01*
X1104072Y-865592D01*
X1103946Y-865718D01*
G54D14*
X1023819Y-706268D02*
X1023819Y-738134D01*
G54D14*
X1046384Y-778697D02*
X1025056Y-778697D01*
X1024972Y-778612D01*
G54D14*
X998322Y-816464D02*
X981723Y-816464D01*
G54D14*
X1014439Y-926825D02*
X1014439Y-867946D01*
X1014472Y-867912D01*
G54D14*
X856272Y-783662D02*
X856272Y-825334D01*
X856471Y-825533D01*
X856471Y-877770D01*
X841240Y-893001D01*
G54D14*
X929263Y-957275D02*
X929263Y-920785D01*
X901434Y-892956D01*
X881285Y-892956D01*
X881240Y-893001D01*
G54D14*
X979478Y-735359D02*
X979478Y-840578D01*
X1004969Y-866069D01*
X1036894Y-866104D01*
X339092Y-782948D02*
G54D11*
D03*
X364492Y-757548D02*
G54D11*
D03*
X339092Y-732148D02*
G54D11*
D03*
G36*
X205870Y-721720D02*
X198850Y-714700D01*
X198850Y-704740D01*
X205870Y-697720D01*
X231830Y-697720D01*
X238850Y-704740D01*
X238850Y-714700D01*
X231830Y-721720D01*
X205870Y-721720D01*
G37*
G54D21*
X218846Y-709718D02*
X269652Y-709719D01*
G54D21*
X422141Y-615329D02*
X422141Y-607341D01*
X405341Y-590141D01*
X359755Y-590141D01*
X315180Y-634716D01*
G54D21*
X371583Y-556134D02*
X371583Y-587736D01*
X371606Y-587759D01*
G54D21*
X225952Y-954436D02*
X225952Y-923515D01*
X216825Y-914388D01*
X158484Y-914388D01*
X158203Y-914668D01*
X158204Y-944434D01*
X470781Y-838892D02*
G54D12*
D03*
X521581Y-838892D02*
G54D12*
D03*
G54D25*
X611468Y-880303D02*
X611468Y-912217D01*
X611335Y-912350D01*
G54D21*
X371980Y-631540D02*
X371980Y-667484D01*
X371811Y-667652D01*
G54D21*
X298062Y-854729D02*
X270777Y-854729D01*
X270612Y-854894D01*
G54D21*
X371811Y-667652D02*
X371811Y-699430D01*
X339092Y-732148D01*
G54D21*
X364492Y-757548D02*
X281495Y-757548D01*
X270800Y-768244D01*
X270800Y-798266D01*
X270742Y-798325D01*
G54D21*
X323462Y-854729D02*
X323462Y-798579D01*
X339092Y-782948D01*
G54D21*
X270542Y-826725D02*
X322347Y-826725D01*
X322394Y-826678D01*
G54D21*
X283671Y-607328D02*
X283671Y-590421D01*
X314783Y-559309D01*
G54D21*
X179127Y-754856D02*
X179127Y-737712D01*
X165027Y-723612D01*
G54D21*
X139640Y-669142D02*
X139640Y-698225D01*
X165027Y-723612D01*
G54D21*
X218852Y-684319D02*
X218852Y-661995D01*
X204149Y-647293D01*
G54D21*
X269652Y-709719D02*
X269652Y-692289D01*
X245334Y-667972D01*
X245334Y-647325D01*
X245299Y-647290D01*
G54D21*
X270699Y-647290D02*
X275248Y-647290D01*
X295611Y-667652D01*
G54D21*
X306334Y-755772D02*
X306334Y-678376D01*
X295611Y-667652D01*
G36*
X463530Y-75776D02*
X478530Y-75776D01*
X478530Y-105776D01*
X463530Y-105776D01*
X463530Y-75776D01*
G37*
G36*
X565134Y-75578D02*
X580134Y-75578D01*
X580134Y-105578D01*
X565134Y-105578D01*
X565134Y-75578D01*
G37*
G36*
X463934Y-217072D02*
X478934Y-217072D01*
X478934Y-247072D01*
X463934Y-247072D01*
X463934Y-217072D01*
G37*
G36*
X565534Y-216872D02*
X580534Y-216872D01*
X580534Y-246872D01*
X565534Y-246872D01*
X565534Y-216872D01*
G37*
G36*
X463634Y-360172D02*
X478634Y-360172D01*
X478634Y-390172D01*
X463634Y-390172D01*
X463634Y-360172D01*
G37*
G36*
X565234Y-359972D02*
X580234Y-359972D01*
X580234Y-389972D01*
X565234Y-389972D01*
X565234Y-359972D01*
G37*
G54D14*
X381070Y-460988D02*
X398470Y-460988D01*
X417470Y-479987D01*
G54D14*
X417560Y-374890D02*
X417560Y-403797D01*
X417470Y-403887D01*
G54D14*
X733053Y-40500D02*
X632407Y-40500D01*
X617420Y-55487D01*
X1052136Y-72781D02*
G54D13*
D03*
X1051739Y-512121D02*
G54D13*
D03*
G54D21*
X135123Y-826919D02*
X162023Y-826919D01*
X164826Y-829722D01*
G54D26*
X885617Y-970495D02*
X900550Y-970495D01*
X900550Y-968939D01*
X898684Y-965828D01*
X887484Y-956495D01*
X885617Y-953384D01*
X885617Y-950272D01*
X887484Y-947161D01*
X891217Y-945606D01*
X894950Y-945606D01*
X898684Y-947161D01*
X900550Y-950272D01*
G54D26*
X861973Y-950272D02*
X861973Y-965828D01*
X863840Y-968939D01*
X867573Y-970495D01*
X871306Y-970495D01*
X875040Y-968939D01*
X876906Y-965828D01*
X876906Y-950272D01*
X875040Y-947161D01*
X871306Y-945606D01*
X867573Y-945606D01*
X863840Y-947161D01*
X861973Y-950272D01*
G54D26*
X853262Y-954939D02*
X843929Y-945606D01*
X843929Y-970495D01*
G54D26*
X835218Y-945606D02*
X820285Y-945606D01*
X822152Y-948717D01*
X825885Y-953384D01*
X829618Y-959606D01*
X831485Y-964272D01*
X831485Y-970495D01*
G54D26*
X1101914Y-966622D02*
X1103781Y-969733D01*
X1107514Y-971288D01*
X1111247Y-971288D01*
X1114981Y-969733D01*
X1116847Y-966622D01*
X1116847Y-951066D01*
X1114981Y-947955D01*
X1111247Y-946400D01*
X1107514Y-946400D01*
X1103781Y-947955D01*
X1101914Y-951066D01*
G54D26*
X1093203Y-971288D02*
X1093203Y-946400D01*
X1083870Y-961955D01*
X1074537Y-946400D01*
X1074537Y-971288D01*
G54D26*
X1050892Y-971288D02*
X1065825Y-971288D01*
X1065825Y-969733D01*
X1063959Y-966622D01*
X1052759Y-957288D01*
X1050892Y-954177D01*
X1050892Y-951066D01*
X1052759Y-947955D01*
X1056492Y-946400D01*
X1060225Y-946400D01*
X1063959Y-947955D01*
X1065825Y-951066D01*
G54D26*
X1042181Y-971288D02*
X1042181Y-946400D01*
G54D26*
X1042181Y-963511D02*
X1027248Y-946400D01*
G54D26*
X1036581Y-958844D02*
X1027248Y-971288D01*
G54D26*
X1018537Y-971288D02*
X1018537Y-946400D01*
X1009204Y-961955D01*
X999871Y-946400D01*
X999871Y-971288D01*
G54D26*
X991159Y-971288D02*
X991159Y-946400D01*
G54D26*
X991159Y-963511D02*
X976226Y-946400D01*
G54D26*
X985559Y-958844D02*
X976226Y-971288D01*
G54D27*
X520128Y-484162D02*
X520128Y-499662D01*
G54D27*
X520128Y-496218D02*
X522195Y-498973D01*
X526328Y-499662D01*
X530462Y-498973D01*
X532528Y-496218D01*
X532528Y-484162D01*
G54D27*
X510484Y-499662D02*
X510484Y-472106D01*
X500151Y-472106D01*
X496018Y-473829D01*
X493951Y-477273D01*
X493951Y-480718D01*
X496018Y-484162D01*
X500151Y-485884D01*
X496018Y-487606D01*
X493951Y-491051D01*
X493951Y-494495D01*
X496018Y-497940D01*
X500151Y-499662D01*
X510484Y-499662D01*
G54D27*
X510484Y-485884D02*
X500151Y-485884D01*
G54D27*
X484308Y-499662D02*
X484308Y-484162D01*
G54D27*
X484308Y-478995D02*
X484308Y-478995D01*
G54D27*
X470530Y-472106D02*
X470530Y-497940D01*
X468464Y-499662D01*
X466397Y-498973D01*
G54D27*
X474664Y-484162D02*
X466397Y-484162D01*
G54D27*
X456752Y-484162D02*
X440219Y-499662D01*
G54D27*
X456752Y-499662D02*
X440219Y-484162D01*
G54D26*
X885617Y-970892D02*
X900550Y-970892D01*
X900550Y-969336D01*
X898684Y-966225D01*
X887484Y-956892D01*
X885617Y-953780D01*
X885617Y-950669D01*
X887484Y-947558D01*
X891217Y-946003D01*
X894950Y-946003D01*
X898684Y-947558D01*
X900550Y-950669D01*
G54D26*
X861973Y-950669D02*
X861973Y-966225D01*
X863840Y-969336D01*
X867573Y-970892D01*
X871306Y-970892D01*
X875040Y-969336D01*
X876906Y-966225D01*
X876906Y-950669D01*
X875040Y-947558D01*
X871306Y-946003D01*
X867573Y-946003D01*
X863840Y-947558D01*
X861973Y-950669D01*
G54D26*
X853262Y-955336D02*
X843929Y-946003D01*
X843929Y-970892D01*
G54D26*
X835218Y-946003D02*
X820285Y-946003D01*
X822152Y-949114D01*
X825885Y-953780D01*
X829618Y-960003D01*
X831485Y-964669D01*
X831485Y-970892D01*
G54D26*
X1101914Y-967019D02*
X1103781Y-970130D01*
X1107514Y-971685D01*
X1111247Y-971685D01*
X1114981Y-970130D01*
X1116847Y-967019D01*
X1116847Y-951463D01*
X1114981Y-948352D01*
X1111247Y-946796D01*
X1107514Y-946796D01*
X1103781Y-948352D01*
X1101914Y-951463D01*
G54D26*
X1093203Y-971685D02*
X1093203Y-946796D01*
X1083870Y-962352D01*
X1074537Y-946796D01*
X1074537Y-971685D01*
G54D26*
X1050892Y-971685D02*
X1065825Y-971685D01*
X1065825Y-970130D01*
X1063959Y-967019D01*
X1052759Y-957685D01*
X1050892Y-954574D01*
X1050892Y-951463D01*
X1052759Y-948352D01*
X1056492Y-946796D01*
X1060225Y-946796D01*
X1063959Y-948352D01*
X1065825Y-951463D01*
G54D26*
X1042181Y-971685D02*
X1042181Y-946796D01*
G54D26*
X1042181Y-963908D02*
X1027248Y-946796D01*
G54D26*
X1036581Y-959241D02*
X1027248Y-971685D01*
G54D26*
X1018537Y-971685D02*
X1018537Y-946796D01*
X1009204Y-962352D01*
X999871Y-946796D01*
X999871Y-971685D01*
G54D26*
X991159Y-971685D02*
X991159Y-946796D01*
G54D26*
X991159Y-963908D02*
X976226Y-946796D01*
G54D26*
X985559Y-959241D02*
X976226Y-971685D01*
G54D14*
X1122301Y-375506D02*
X1122301Y-426806D01*
G54D14*
X1168898Y-399928D02*
X1124888Y-399928D01*
X1124762Y-399803D01*
G54D21*
X451286Y-705476D02*
X451186Y-822470D01*
X416998Y-856658D01*
X417201Y-918606D01*
X385559Y-950478D01*
X327037Y-950511D01*
G54D21*
X422280Y-795501D02*
X422280Y-820567D01*
X344606Y-898441D01*
X278706Y-898441D01*
X251306Y-925841D01*
X251306Y-954390D01*
X251353Y-954436D01*
G54D21*
X422140Y-663351D02*
X422140Y-795362D01*
X422280Y-795501D01*
G54D21*
X451286Y-705476D02*
X451286Y-690528D01*
X464286Y-677528D01*
G36*
X192881Y-183850D02*
X269081Y-174325D01*
X278606Y-186628D01*
X270272Y-204488D01*
X267097Y-207662D01*
X177006Y-207662D01*
X172244Y-202900D01*
X172244Y-185438D01*
X173831Y-183850D01*
X197247Y-183850D01*
X192881Y-183850D01*
G37*
G54D28*
X192881Y-183850D02*
X269081Y-174325D01*
X278606Y-186628D01*
X270272Y-204488D01*
X267097Y-207662D01*
X177006Y-207662D01*
X172244Y-202900D01*
X172244Y-185438D01*
X173831Y-183850D01*
X197247Y-183850D01*
X192881Y-183850D01*
G36*
X314722Y-158450D02*
X369491Y-158450D01*
X382984Y-171944D01*
X382984Y-183453D01*
X381794Y-184644D01*
X325834Y-184644D01*
X313531Y-172341D01*
X313531Y-159641D01*
X314722Y-158450D01*
G37*
G54D28*
X314722Y-158450D02*
X369491Y-158450D01*
X382984Y-171944D01*
X382984Y-183453D01*
X381794Y-184644D01*
X325834Y-184644D01*
X313531Y-172341D01*
X313531Y-159641D01*
X314722Y-158450D01*
G36*
X342900Y-121144D02*
X344884Y-121144D01*
X356791Y-133050D01*
X356791Y-144559D01*
X355997Y-145353D01*
X337741Y-145353D01*
X337344Y-144956D01*
X337344Y-131066D01*
X336947Y-130669D01*
X336947Y-127097D01*
X342900Y-121144D01*
G37*
G54D28*
X342900Y-121144D02*
X344884Y-121144D01*
X356791Y-133050D01*
X356791Y-144559D01*
X355997Y-145353D01*
X337741Y-145353D01*
X337344Y-144956D01*
X337344Y-131066D01*
X336947Y-130669D01*
X336947Y-127097D01*
X342900Y-121144D01*
G36*
X388938Y-167181D02*
X412353Y-167181D01*
X415131Y-169959D01*
X415131Y-216394D01*
X409972Y-221553D01*
X391319Y-221553D01*
X389334Y-219569D01*
X389334Y-168372D01*
X390128Y-167578D01*
X395684Y-167578D01*
X396081Y-167181D01*
X388938Y-167181D01*
G37*
G54D28*
X388938Y-167181D02*
X412353Y-167181D01*
X415131Y-169959D01*
X415131Y-216394D01*
X409972Y-221553D01*
X391319Y-221553D01*
X389334Y-219569D01*
X389334Y-168372D01*
X390128Y-167578D01*
X395684Y-167578D01*
X396081Y-167181D01*
X388938Y-167181D01*
G36*
X281384Y-175912D02*
X281384Y-244572D01*
X280591Y-245366D01*
X285750Y-245366D01*
X288528Y-242588D01*
X288528Y-237428D01*
X315912Y-210044D01*
X333772Y-210044D01*
X334169Y-209647D01*
X334169Y-184247D01*
X334962Y-183453D01*
X319881Y-183453D01*
X307578Y-171150D01*
X284956Y-171150D01*
X280988Y-175119D01*
X281384Y-175912D01*
G37*
G54D28*
X281384Y-175912D02*
X281384Y-244572D01*
X280591Y-245366D01*
X285750Y-245366D01*
X288528Y-242588D01*
X288528Y-237428D01*
X315912Y-210044D01*
X333772Y-210044D01*
X334169Y-209647D01*
X334169Y-184247D01*
X334962Y-183453D01*
X319881Y-183453D01*
X307578Y-171150D01*
X284956Y-171150D01*
X280988Y-175119D01*
X281384Y-175912D01*
G36*
X45641Y-163609D02*
X58738Y-163609D01*
X99219Y-123128D01*
X135334Y-123128D01*
X144859Y-132653D01*
X144859Y-162816D01*
X142875Y-164800D01*
X104775Y-164800D01*
X82153Y-187422D01*
X52388Y-187422D01*
X50403Y-185438D01*
X50403Y-184247D01*
X40878Y-174722D01*
X40878Y-169562D01*
X46434Y-164006D01*
X45641Y-163609D01*
G37*
G54D28*
X45641Y-163609D02*
X58738Y-163609D01*
X99219Y-123128D01*
X135334Y-123128D01*
X144859Y-132653D01*
X144859Y-162816D01*
X142875Y-164800D01*
X104775Y-164800D01*
X82153Y-187422D01*
X52388Y-187422D01*
X50403Y-185438D01*
X50403Y-184247D01*
X40878Y-174722D01*
X40878Y-169562D01*
X46434Y-164006D01*
X45641Y-163609D01*
G36*
X45641Y-340219D02*
X120650Y-340219D01*
X122634Y-342203D01*
X122634Y-348156D01*
X111919Y-358872D01*
X45641Y-358872D01*
X42466Y-355697D01*
X42466Y-342203D01*
X44053Y-340616D01*
X45641Y-340219D01*
G37*
G54D28*
X45641Y-340219D02*
X120650Y-340219D01*
X122634Y-342203D01*
X122634Y-348156D01*
X111919Y-358872D01*
X45641Y-358872D01*
X42466Y-355697D01*
X42466Y-342203D01*
X44053Y-340616D01*
X45641Y-340219D01*
G36*
X40878Y-369588D02*
X40878Y-370381D01*
X34131Y-377128D01*
X38894Y-377128D01*
X44053Y-382288D01*
X49609Y-382288D01*
X59531Y-392209D01*
X112712Y-392209D01*
X116681Y-388241D01*
X116681Y-383081D01*
X119856Y-379906D01*
X119856Y-369588D01*
X41672Y-369588D01*
X41275Y-369191D01*
X40878Y-369588D01*
G37*
G54D28*
X40878Y-369588D02*
X40878Y-370381D01*
X34131Y-377128D01*
X38894Y-377128D01*
X44053Y-382288D01*
X49609Y-382288D01*
X59531Y-392209D01*
X112712Y-392209D01*
X116681Y-388241D01*
X116681Y-383081D01*
X119856Y-379906D01*
X119856Y-369588D01*
X41672Y-369588D01*
X41275Y-369191D01*
X40878Y-369588D01*
G36*
X252809Y-396178D02*
X309166Y-396178D01*
X332978Y-419991D01*
X323453Y-419991D01*
X311150Y-432294D01*
X265906Y-432294D01*
X255984Y-422372D01*
X255984Y-396972D01*
X256778Y-396178D01*
X252809Y-396178D01*
G37*
G54D28*
X252809Y-396178D02*
X309166Y-396178D01*
X332978Y-419991D01*
X323453Y-419991D01*
X311150Y-432294D01*
X265906Y-432294D01*
X255984Y-422372D01*
X255984Y-396972D01*
X256778Y-396178D01*
X252809Y-396178D01*
G36*
X281384Y-438247D02*
X298847Y-438247D01*
X298847Y-454519D01*
X292497Y-460869D01*
X285750Y-460869D01*
X285353Y-460472D01*
X285353Y-459678D01*
X277812Y-452138D01*
X277812Y-442216D01*
X281384Y-438644D01*
X281384Y-438247D01*
G37*
G54D28*
X281384Y-438247D02*
X298847Y-438247D01*
X298847Y-454519D01*
X292497Y-460869D01*
X285750Y-460869D01*
X285353Y-460472D01*
X285353Y-459678D01*
X277812Y-452138D01*
X277812Y-442216D01*
X281384Y-438644D01*
X281384Y-438247D01*
G36*
X362347Y-378716D02*
X362347Y-410862D01*
X361950Y-411259D01*
X407988Y-411259D01*
X417909Y-401338D01*
X417909Y-380700D01*
X409575Y-372366D01*
X379809Y-372366D01*
X361950Y-390225D01*
X362347Y-378716D01*
G37*
G54D28*
X362347Y-378716D02*
X362347Y-410862D01*
X361950Y-411259D01*
X407988Y-411259D01*
X417909Y-401338D01*
X417909Y-380700D01*
X409575Y-372366D01*
X379809Y-372366D01*
X361950Y-390225D01*
X362347Y-378716D01*
G36*
X654844Y-148528D02*
X659606Y-153291D01*
X722312Y-153291D01*
X723503Y-152100D01*
X723503Y-123128D01*
X713581Y-113206D01*
X679053Y-113206D01*
X654844Y-137416D01*
X654844Y-148528D01*
G37*
G54D28*
X654844Y-148528D02*
X659606Y-153291D01*
X722312Y-153291D01*
X723503Y-152100D01*
X723503Y-123128D01*
X713581Y-113206D01*
X679053Y-113206D01*
X654844Y-137416D01*
X654844Y-148528D01*
G36*
X626269Y-321566D02*
X701278Y-321566D01*
X703262Y-323550D01*
X703262Y-329503D01*
X692547Y-340219D01*
X626269Y-340219D01*
X623094Y-337044D01*
X623094Y-323550D01*
X624681Y-321962D01*
X626269Y-321566D01*
G37*
G54D28*
X626269Y-321566D02*
X701278Y-321566D01*
X703262Y-323550D01*
X703262Y-329503D01*
X692547Y-340219D01*
X626269Y-340219D01*
X623094Y-337044D01*
X623094Y-323550D01*
X624681Y-321962D01*
X626269Y-321566D01*
G36*
X620712Y-352125D02*
X620712Y-352919D01*
X613966Y-359666D01*
X618728Y-359666D01*
X623888Y-364825D01*
X629444Y-364825D01*
X639366Y-374747D01*
X692547Y-374747D01*
X696516Y-370778D01*
X696516Y-365619D01*
X699691Y-362444D01*
X699691Y-352125D01*
X621506Y-352125D01*
X621109Y-351728D01*
X620712Y-352125D01*
G37*
G54D28*
X620712Y-352125D02*
X620712Y-352919D01*
X613966Y-359666D01*
X618728Y-359666D01*
X623888Y-364825D01*
X629444Y-364825D01*
X639366Y-374747D01*
X692547Y-374747D01*
X696516Y-370778D01*
X696516Y-365619D01*
X699691Y-362444D01*
X699691Y-352125D01*
X621506Y-352125D01*
X621109Y-351728D01*
X620712Y-352125D01*
G36*
X829072Y-356888D02*
X885428Y-356888D01*
X909241Y-380700D01*
X899716Y-380700D01*
X887412Y-393003D01*
X842169Y-393003D01*
X832247Y-383081D01*
X832247Y-357681D01*
X833041Y-356888D01*
X829072Y-356888D01*
G37*
G54D28*
X829072Y-356888D02*
X885428Y-356888D01*
X909241Y-380700D01*
X899716Y-380700D01*
X887412Y-393003D01*
X842169Y-393003D01*
X832247Y-383081D01*
X832247Y-357681D01*
X833041Y-356888D01*
X829072Y-356888D01*
G36*
X799703Y-144162D02*
X799703Y-166388D01*
X801688Y-168372D01*
X853281Y-168372D01*
X858441Y-173531D01*
X858441Y-201312D01*
X859234Y-202106D01*
X863600Y-202106D01*
X894556Y-171150D01*
X912416Y-171150D01*
X913606Y-169959D01*
X913606Y-143369D01*
X907653Y-137416D01*
X890588Y-137416D01*
X877888Y-124716D01*
X850503Y-124716D01*
X833834Y-141384D01*
X806450Y-141384D01*
X800100Y-147734D01*
X799703Y-144162D01*
G37*
G54D28*
X799703Y-144162D02*
X799703Y-166388D01*
X801688Y-168372D01*
X853281Y-168372D01*
X858441Y-173531D01*
X858441Y-201312D01*
X859234Y-202106D01*
X863600Y-202106D01*
X894556Y-171150D01*
X912416Y-171150D01*
X913606Y-169959D01*
X913606Y-143369D01*
X907653Y-137416D01*
X890588Y-137416D01*
X877888Y-124716D01*
X850503Y-124716D01*
X833834Y-141384D01*
X806450Y-141384D01*
X800100Y-147734D01*
X799703Y-144162D01*
G36*
X889397Y-118366D02*
X952103Y-118366D01*
X958453Y-124716D01*
X958453Y-146147D01*
X958056Y-146544D01*
X907256Y-146544D01*
X889397Y-128684D01*
X889397Y-118762D01*
X889794Y-118366D01*
X889397Y-118366D01*
G37*
G54D28*
X889397Y-118366D02*
X952103Y-118366D01*
X958453Y-124716D01*
X958453Y-146147D01*
X958056Y-146544D01*
X907256Y-146544D01*
X889397Y-128684D01*
X889397Y-118762D01*
X889794Y-118366D01*
X889397Y-118366D01*
G36*
X976312Y-125509D02*
X977106Y-125509D01*
X988219Y-136622D01*
X988219Y-171150D01*
X979091Y-180278D01*
X969169Y-180278D01*
X968375Y-179484D01*
X968375Y-141384D01*
X964803Y-137812D01*
X964803Y-137019D01*
X976312Y-125509D01*
G37*
G54D28*
X976312Y-125509D02*
X977106Y-125509D01*
X988219Y-136622D01*
X988219Y-171150D01*
X979091Y-180278D01*
X969169Y-180278D01*
X968375Y-179484D01*
X968375Y-141384D01*
X964803Y-137812D01*
X964803Y-137019D01*
X976312Y-125509D01*
G36*
X921941Y-81456D02*
X925116Y-81456D01*
X925909Y-82250D01*
X925909Y-85822D01*
X932259Y-92172D01*
X932259Y-104078D01*
X930672Y-105666D01*
X916384Y-105666D01*
X915194Y-104475D01*
X915194Y-88600D01*
X915591Y-88203D01*
X915591Y-87806D01*
X921941Y-81456D01*
G37*
G54D28*
X921941Y-81456D02*
X925116Y-81456D01*
X925909Y-82250D01*
X925909Y-85822D01*
X932259Y-92172D01*
X932259Y-104078D01*
X930672Y-105666D01*
X916384Y-105666D01*
X915194Y-104475D01*
X915194Y-88600D01*
X915591Y-88203D01*
X915591Y-87806D01*
X921941Y-81456D01*
G36*
X922734Y-157656D02*
X922734Y-146147D01*
X924322Y-144559D01*
X944562Y-144559D01*
X950119Y-150116D01*
X950119Y-156466D01*
X955675Y-162022D01*
X955675Y-169562D01*
X954881Y-170356D01*
X937022Y-170356D01*
X933450Y-173928D01*
X929878Y-173928D01*
X929084Y-173134D01*
X929084Y-164006D01*
X922734Y-157656D01*
G37*
G54D28*
X922734Y-157656D02*
X922734Y-146147D01*
X924322Y-144559D01*
X944562Y-144559D01*
X950119Y-150116D01*
X950119Y-156466D01*
X955675Y-162022D01*
X955675Y-169562D01*
X954881Y-170356D01*
X937022Y-170356D01*
X933450Y-173928D01*
X929878Y-173928D01*
X929084Y-173134D01*
X929084Y-164006D01*
X922734Y-157656D01*
G36*
X938609Y-357681D02*
X938609Y-372366D01*
X937419Y-373556D01*
X951309Y-373556D01*
X961231Y-363634D01*
X1022350Y-363634D01*
X1023541Y-362444D01*
X1023541Y-338631D01*
X1021159Y-336250D01*
X954088Y-336250D01*
X939800Y-350538D01*
X939800Y-359269D01*
X938609Y-360459D01*
X938609Y-357681D01*
G37*
G54D28*
X938609Y-357681D02*
X938609Y-372366D01*
X937419Y-373556D01*
X951309Y-373556D01*
X961231Y-363634D01*
X1022350Y-363634D01*
X1023541Y-362444D01*
X1023541Y-338631D01*
X1021159Y-336250D01*
X954088Y-336250D01*
X939800Y-350538D01*
X939800Y-359269D01*
X938609Y-360459D01*
X938609Y-357681D01*
G36*
X864791Y-398559D02*
X875903Y-398559D01*
X877491Y-400147D01*
X877491Y-411259D01*
X869553Y-419197D01*
X861219Y-419197D01*
X860028Y-418006D01*
X860028Y-412847D01*
X856059Y-408878D01*
X856059Y-400544D01*
X858441Y-398162D01*
X864791Y-398162D01*
X865188Y-398559D01*
X864791Y-398559D01*
G37*
G54D28*
X864791Y-398559D02*
X875903Y-398559D01*
X877491Y-400147D01*
X877491Y-411259D01*
X869553Y-419197D01*
X861219Y-419197D01*
X860028Y-418006D01*
X860028Y-412847D01*
X856059Y-408878D01*
X856059Y-400544D01*
X858441Y-398162D01*
X864791Y-398162D01*
X865188Y-398559D01*
X864791Y-398559D01*
G36*
X1218803Y-163212D02*
X1250156Y-163212D01*
X1262459Y-175516D01*
X1262459Y-179484D01*
X1253331Y-188612D01*
X1221581Y-188612D01*
X1216025Y-183056D01*
X1216025Y-166784D01*
X1218406Y-164403D01*
X1218803Y-163212D01*
G37*
G54D28*
X1218803Y-163212D02*
X1250156Y-163212D01*
X1262459Y-175516D01*
X1262459Y-179484D01*
X1253331Y-188612D01*
X1221581Y-188612D01*
X1216025Y-183056D01*
X1216025Y-166784D01*
X1218406Y-164403D01*
X1218803Y-163212D01*
G36*
X1269603Y-359269D02*
X1269603Y-405306D01*
X1263253Y-411656D01*
X1249362Y-411656D01*
X1247775Y-410069D01*
X1247775Y-362841D01*
X1253728Y-356888D01*
X1268016Y-356888D01*
X1270000Y-358872D01*
X1269603Y-359269D01*
G37*
G54D28*
X1269603Y-359269D02*
X1269603Y-405306D01*
X1263253Y-411656D01*
X1249362Y-411656D01*
X1247775Y-410069D01*
X1247775Y-362841D01*
X1253728Y-356888D01*
X1268016Y-356888D01*
X1270000Y-358872D01*
X1269603Y-359269D01*
G36*
X1053703Y-584694D02*
X1051719Y-584694D01*
X1048147Y-588266D01*
X1047750Y-588266D01*
X952103Y-492619D01*
X813991Y-492619D01*
X762000Y-544609D01*
X750888Y-544609D01*
X750491Y-544212D01*
X751284Y-544212D01*
X809625Y-485872D01*
X954881Y-485872D01*
X1053703Y-584694D01*
G37*
G54D28*
X1053703Y-584694D02*
X1051719Y-584694D01*
X1048147Y-588266D01*
X1047750Y-588266D01*
X952103Y-492619D01*
X813991Y-492619D01*
X762000Y-544609D01*
X750888Y-544609D01*
X750491Y-544212D01*
X751284Y-544212D01*
X809625Y-485872D01*
X954881Y-485872D01*
X1053703Y-584694D01*
G36*
X602456Y-527147D02*
X611188Y-527147D01*
X625475Y-541434D01*
X754062Y-541434D01*
X755650Y-543022D01*
X755253Y-543022D01*
X746522Y-551753D01*
X606425Y-551753D01*
X602456Y-547784D01*
X602456Y-527544D01*
X602853Y-527147D01*
X602456Y-527147D01*
G37*
G54D28*
X602456Y-527147D02*
X611188Y-527147D01*
X625475Y-541434D01*
X754062Y-541434D01*
X755650Y-543022D01*
X755253Y-543022D01*
X746522Y-551753D01*
X606425Y-551753D01*
X602456Y-547784D01*
X602456Y-527544D01*
X602853Y-527147D01*
X602456Y-527147D01*
G36*
X571897Y-527941D02*
X577453Y-527941D01*
X577453Y-529925D01*
X614362Y-566834D01*
X614362Y-588662D01*
X575072Y-588662D01*
X569119Y-582709D01*
X571897Y-527941D01*
G37*
G54D28*
X571897Y-527941D02*
X577453Y-527941D01*
X577453Y-529925D01*
X614362Y-566834D01*
X614362Y-588662D01*
X575072Y-588662D01*
X569119Y-582709D01*
X571897Y-527941D01*
G36*
X1250553Y-672006D02*
X1282700Y-672006D01*
X1296591Y-679547D01*
X1295400Y-716853D01*
X1291431Y-731141D01*
X1250553Y-722012D01*
X1244600Y-716059D01*
X1244600Y-677959D01*
X1250950Y-671609D01*
X1250553Y-672006D01*
G37*
G54D28*
X1250553Y-672006D02*
X1282700Y-672006D01*
X1296591Y-679547D01*
X1295400Y-716853D01*
X1291431Y-731141D01*
X1250553Y-722012D01*
X1244600Y-716059D01*
X1244600Y-677959D01*
X1250950Y-671609D01*
X1250553Y-672006D01*
G36*
X1244203Y-722409D02*
X1276747Y-722409D01*
X1290241Y-730347D01*
X1269206Y-747412D01*
X1243012Y-747412D01*
X1242219Y-746619D01*
X1242219Y-724394D01*
X1244203Y-722409D01*
G37*
G54D28*
X1244203Y-722409D02*
X1276747Y-722409D01*
X1290241Y-730347D01*
X1269206Y-747412D01*
X1243012Y-747412D01*
X1242219Y-746619D01*
X1242219Y-724394D01*
X1244203Y-722409D01*
G36*
X910034Y-639462D02*
X952897Y-639462D01*
X973534Y-618825D01*
X977106Y-618825D01*
X983059Y-624778D01*
X983059Y-634700D01*
X979578Y-659159D01*
X911622Y-653750D01*
X906066Y-648194D01*
X906066Y-643828D01*
X910828Y-639066D01*
X910034Y-639462D01*
G37*
G54D28*
X910034Y-639462D02*
X952897Y-639462D01*
X973534Y-618825D01*
X977106Y-618825D01*
X983059Y-624778D01*
X983059Y-634700D01*
X979578Y-659159D01*
X911622Y-653750D01*
X906066Y-648194D01*
X906066Y-643828D01*
X910828Y-639066D01*
X910034Y-639462D01*
G36*
X804069Y-726378D02*
X810419Y-726378D01*
X810816Y-725981D01*
X810816Y-728759D01*
X817166Y-735109D01*
X817166Y-765272D01*
X811609Y-770828D01*
X809228Y-770828D01*
X802084Y-763684D01*
X802084Y-728759D01*
X804466Y-726378D01*
X804069Y-726378D01*
G37*
G54D28*
X804069Y-726378D02*
X810419Y-726378D01*
X810816Y-725981D01*
X810816Y-728759D01*
X817166Y-735109D01*
X817166Y-765272D01*
X811609Y-770828D01*
X809228Y-770828D01*
X802084Y-763684D01*
X802084Y-728759D01*
X804466Y-726378D01*
X804069Y-726378D01*
G36*
X650478Y-613269D02*
X669528Y-618428D01*
X667941Y-724791D01*
X626666Y-766066D01*
X562372Y-766066D01*
X561578Y-765272D01*
X561578Y-747412D01*
X498475Y-764081D01*
X502047Y-745031D01*
X523478Y-722409D01*
X521494Y-673991D01*
X556022Y-642241D01*
X555625Y-596997D01*
X564356Y-587472D01*
X619919Y-585488D01*
X650478Y-613269D01*
G37*
G54D28*
X650478Y-613269D02*
X669528Y-618428D01*
X667941Y-724791D01*
X626666Y-766066D01*
X562372Y-766066D01*
X561578Y-765272D01*
X561578Y-747412D01*
X498475Y-764081D01*
X502047Y-745031D01*
X523478Y-722409D01*
X521494Y-673991D01*
X556022Y-642241D01*
X555625Y-596997D01*
X564356Y-587472D01*
X619919Y-585488D01*
X650478Y-613269D01*
G36*
X477441Y-781544D02*
X486172Y-781544D01*
X486569Y-781147D01*
X486569Y-752969D01*
X514747Y-724791D01*
X514747Y-672006D01*
X515144Y-671609D01*
X508397Y-671609D01*
X490934Y-689072D01*
X490934Y-713281D01*
X472678Y-731538D01*
X472678Y-776781D01*
X477441Y-781544D01*
G37*
G54D28*
X477441Y-781544D02*
X486172Y-781544D01*
X486569Y-781147D01*
X486569Y-752969D01*
X514747Y-724791D01*
X514747Y-672006D01*
X515144Y-671609D01*
X508397Y-671609D01*
X490934Y-689072D01*
X490934Y-713281D01*
X472678Y-731538D01*
X472678Y-776781D01*
X477441Y-781544D01*
G36*
X475853Y-678356D02*
X484981Y-678356D01*
X485378Y-678753D01*
X485378Y-710503D01*
X464344Y-731538D01*
X464344Y-829566D01*
X461566Y-832344D01*
X456406Y-832344D01*
X452834Y-828772D01*
X452834Y-825994D01*
X457200Y-821628D01*
X457200Y-714472D01*
X462756Y-708916D01*
X462756Y-691453D01*
X476250Y-677959D01*
X475853Y-678356D01*
G37*
G54D28*
X475853Y-678356D02*
X484981Y-678356D01*
X485378Y-678753D01*
X485378Y-710503D01*
X464344Y-731538D01*
X464344Y-829566D01*
X461566Y-832344D01*
X456406Y-832344D01*
X452834Y-828772D01*
X452834Y-825994D01*
X457200Y-821628D01*
X457200Y-714472D01*
X462756Y-708916D01*
X462756Y-691453D01*
X476250Y-677959D01*
X475853Y-678356D01*
G36*
X333375Y-890684D02*
X344091Y-890684D01*
X415925Y-818850D01*
X415925Y-828375D01*
X401241Y-843059D01*
X401241Y-843853D01*
X411559Y-854172D01*
X445294Y-820438D01*
X445294Y-699788D01*
X462756Y-682325D01*
X490934Y-682325D01*
X518319Y-654941D01*
X518319Y-652162D01*
X509191Y-643034D01*
X412353Y-643034D01*
X400844Y-654544D01*
X400844Y-820834D01*
X332581Y-889097D01*
X333772Y-890288D01*
X333375Y-890684D01*
G37*
G54D28*
X333375Y-890684D02*
X344091Y-890684D01*
X415925Y-818850D01*
X415925Y-828375D01*
X401241Y-843059D01*
X401241Y-843853D01*
X411559Y-854172D01*
X445294Y-820438D01*
X445294Y-699788D01*
X462756Y-682325D01*
X490934Y-682325D01*
X518319Y-654941D01*
X518319Y-652162D01*
X509191Y-643034D01*
X412353Y-643034D01*
X400844Y-654544D01*
X400844Y-820834D01*
X332581Y-889097D01*
X333772Y-890288D01*
X333375Y-890684D01*
G36*
X269875Y-873619D02*
X332581Y-873619D01*
X388541Y-817659D01*
X388541Y-668434D01*
X388938Y-668038D01*
X383778Y-668038D01*
X374253Y-677562D01*
X374253Y-698994D01*
X338534Y-734712D01*
X338534Y-791069D01*
X329406Y-800197D01*
X329406Y-775988D01*
X335756Y-769638D01*
X335756Y-764478D01*
X336153Y-764081D01*
X284956Y-764081D01*
X275034Y-774003D01*
X275034Y-802578D01*
X270669Y-806944D01*
X270669Y-822422D01*
X269875Y-823216D01*
X269875Y-873619D01*
G37*
G54D28*
X269875Y-873619D02*
X332581Y-873619D01*
X388541Y-817659D01*
X388541Y-668434D01*
X388938Y-668038D01*
X383778Y-668038D01*
X374253Y-677562D01*
X374253Y-698994D01*
X338534Y-734712D01*
X338534Y-791069D01*
X329406Y-800197D01*
X329406Y-775988D01*
X335756Y-769638D01*
X335756Y-764478D01*
X336153Y-764081D01*
X284956Y-764081D01*
X275034Y-774003D01*
X275034Y-802578D01*
X270669Y-806944D01*
X270669Y-822422D01*
X269875Y-823216D01*
X269875Y-873619D01*
G36*
X102791Y-762494D02*
X155972Y-762494D01*
X163116Y-755350D01*
X165100Y-755350D01*
X172641Y-762891D01*
X172641Y-874809D01*
X173038Y-875206D01*
X121841Y-875206D01*
X105569Y-858934D01*
X105569Y-765669D01*
X108347Y-762891D01*
X102791Y-762494D01*
G37*
G54D28*
X102791Y-762494D02*
X155972Y-762494D01*
X163116Y-755350D01*
X165100Y-755350D01*
X172641Y-762891D01*
X172641Y-874809D01*
X173038Y-875206D01*
X121841Y-875206D01*
X105569Y-858934D01*
X105569Y-765669D01*
X108347Y-762891D01*
X102791Y-762494D01*
G36*
X303609Y-373556D02*
X315912Y-373556D01*
X348059Y-341409D01*
X357981Y-341409D01*
X358775Y-342203D01*
X358775Y-404909D01*
X350838Y-412847D01*
X308769Y-412847D01*
X298053Y-402131D01*
X298053Y-380303D01*
X304006Y-374350D01*
X303609Y-373556D01*
G37*
G54D28*
X303609Y-373556D02*
X315912Y-373556D01*
X348059Y-341409D01*
X357981Y-341409D01*
X358775Y-342203D01*
X358775Y-404909D01*
X350838Y-412847D01*
X308769Y-412847D01*
X298053Y-402131D01*
X298053Y-380303D01*
X304006Y-374350D01*
X303609Y-373556D01*
G36*
X882253Y-332281D02*
X894556Y-332281D01*
X926703Y-300134D01*
X936625Y-300134D01*
X937419Y-300928D01*
X937419Y-363634D01*
X929481Y-371572D01*
X887412Y-371572D01*
X876697Y-360856D01*
X876697Y-339028D01*
X882650Y-333075D01*
X882253Y-332281D01*
G37*
G54D28*
X882253Y-332281D02*
X894556Y-332281D01*
X926703Y-300134D01*
X936625Y-300134D01*
X937419Y-300928D01*
X937419Y-363634D01*
X929481Y-371572D01*
X887412Y-371572D01*
X876697Y-360856D01*
X876697Y-339028D01*
X882650Y-333075D01*
X882253Y-332281D01*
G36*
X833438Y-59628D02*
X833438Y-88203D01*
X864394Y-119159D01*
X893366Y-119159D01*
X903684Y-108841D01*
X903684Y-85028D01*
X898128Y-79472D01*
X870744Y-79472D01*
X845741Y-54469D01*
X840978Y-54469D01*
X833438Y-62009D01*
X833438Y-59628D01*
G37*
G54D28*
X833438Y-59628D02*
X833438Y-88203D01*
X864394Y-119159D01*
X893366Y-119159D01*
X903684Y-108841D01*
X903684Y-85028D01*
X898128Y-79472D01*
X870744Y-79472D01*
X845741Y-54469D01*
X840978Y-54469D01*
X833438Y-62009D01*
X833438Y-59628D01*
G36*
X610791Y-817659D02*
X610791Y-825994D01*
X609997Y-826788D01*
X569912Y-826788D01*
X533797Y-790672D01*
X509984Y-790672D01*
X508397Y-789084D01*
X500856Y-776781D01*
X501253Y-766859D01*
X527447Y-766859D01*
X548878Y-745428D01*
X550862Y-745428D01*
X555228Y-749794D01*
X555228Y-782734D01*
X584597Y-812103D01*
X605234Y-812103D01*
X610791Y-817659D01*
G37*
G54D28*
X610791Y-817659D02*
X610791Y-825994D01*
X609997Y-826788D01*
X569912Y-826788D01*
X533797Y-790672D01*
X509984Y-790672D01*
X508397Y-789084D01*
X500856Y-776781D01*
X501253Y-766859D01*
X527447Y-766859D01*
X548878Y-745428D01*
X550862Y-745428D01*
X555228Y-749794D01*
X555228Y-782734D01*
X584597Y-812103D01*
X605234Y-812103D01*
X610791Y-817659D01*
G36*
X1152128Y-871634D02*
X1199753Y-871634D01*
X1200547Y-870841D01*
X1200547Y-800197D01*
X1239838Y-760906D01*
X1239838Y-747809D01*
X1214834Y-747809D01*
X1150541Y-812103D01*
X1150541Y-869650D01*
X1152128Y-871238D01*
X1152128Y-871634D01*
G37*
G54D28*
X1152128Y-871634D02*
X1199753Y-871634D01*
X1200547Y-870841D01*
X1200547Y-800197D01*
X1239838Y-760906D01*
X1239838Y-747809D01*
X1214834Y-747809D01*
X1150541Y-812103D01*
X1150541Y-869650D01*
X1152128Y-871238D01*
X1152128Y-871634D01*
G36*
X862806Y-616047D02*
X868362Y-616047D01*
X868362Y-665656D01*
X883047Y-680341D01*
X897334Y-680341D01*
X912812Y-664862D01*
X933053Y-664862D01*
X937816Y-669625D01*
X937816Y-769241D01*
X931069Y-775988D01*
X885031Y-775988D01*
X879475Y-770431D01*
X879475Y-735903D01*
X862806Y-719234D01*
X862806Y-616841D01*
X863600Y-616047D01*
X862806Y-616047D01*
G37*
G54D28*
X862806Y-616047D02*
X868362Y-616047D01*
X868362Y-665656D01*
X883047Y-680341D01*
X897334Y-680341D01*
X912812Y-664862D01*
X933053Y-664862D01*
X937816Y-669625D01*
X937816Y-769241D01*
X931069Y-775988D01*
X885031Y-775988D01*
X879475Y-770431D01*
X879475Y-735903D01*
X862806Y-719234D01*
X862806Y-616841D01*
X863600Y-616047D01*
X862806Y-616047D01*
G36*
X875903Y-538259D02*
X889000Y-538259D01*
X890191Y-539450D01*
X890191Y-546197D01*
X895350Y-551356D01*
X895350Y-676372D01*
X891778Y-679944D01*
X885031Y-679944D01*
X880666Y-675578D01*
X880666Y-550562D01*
X875506Y-545403D01*
X875506Y-538656D01*
X875903Y-538259D01*
G37*
G54D28*
X875903Y-538259D02*
X889000Y-538259D01*
X890191Y-539450D01*
X890191Y-546197D01*
X895350Y-551356D01*
X895350Y-676372D01*
X891778Y-679944D01*
X885031Y-679944D01*
X880666Y-675578D01*
X880666Y-550562D01*
X875506Y-545403D01*
X875506Y-538656D01*
X875903Y-538259D01*
G36*
X346075Y-186628D02*
X382191Y-186628D01*
X385366Y-189803D01*
X385366Y-214806D01*
X379412Y-220759D01*
X354806Y-220759D01*
X348853Y-214806D01*
X348853Y-203694D01*
X344091Y-198931D01*
X344091Y-188612D01*
X346472Y-186231D01*
X346075Y-186628D01*
G37*
G54D28*
X346075Y-186628D02*
X382191Y-186628D01*
X385366Y-189803D01*
X385366Y-214806D01*
X379412Y-220759D01*
X354806Y-220759D01*
X348853Y-214806D01*
X348853Y-203694D01*
X344091Y-198931D01*
X344091Y-188612D01*
X346472Y-186231D01*
X346075Y-186628D01*
G36*
X180578Y-155275D02*
X187325Y-162022D01*
X187325Y-169562D01*
X185341Y-171547D01*
X183356Y-171547D01*
X178991Y-175912D01*
X171053Y-175912D01*
X169466Y-174325D01*
X169466Y-162022D01*
X176212Y-155275D01*
X180578Y-155275D01*
G37*
G54D28*
X180578Y-155275D02*
X187325Y-162022D01*
X187325Y-169562D01*
X185341Y-171547D01*
X183356Y-171547D01*
X178991Y-175912D01*
X171053Y-175912D01*
X169466Y-174325D01*
X169466Y-162022D01*
X176212Y-155275D01*
X180578Y-155275D01*
G36*
X1316831Y-167975D02*
X1319609Y-165197D01*
X1319609Y-141781D01*
X1299766Y-121938D01*
X1270794Y-121938D01*
X1242616Y-150116D01*
X1242616Y-166784D01*
X1243806Y-167975D01*
X1316831Y-167975D01*
G37*
G54D28*
X1316831Y-167975D02*
X1319609Y-165197D01*
X1319609Y-141781D01*
X1299766Y-121938D01*
X1270794Y-121938D01*
X1242616Y-150116D01*
X1242616Y-166784D01*
X1243806Y-167975D01*
X1316831Y-167975D01*
G36*
X771128Y-167181D02*
X787797Y-167181D01*
X787797Y-121541D01*
X786209Y-119953D01*
X771128Y-119953D01*
X768350Y-122731D01*
X768350Y-164403D01*
X771128Y-167181D01*
G37*
G54D28*
X771128Y-167181D02*
X787797Y-167181D01*
X787797Y-121541D01*
X786209Y-119953D01*
X771128Y-119953D01*
X768350Y-122731D01*
X768350Y-164403D01*
X771128Y-167181D01*
G36*
X631031Y-133050D02*
X641350Y-133050D01*
X671116Y-162816D01*
X671116Y-165594D01*
X661591Y-175119D01*
X632222Y-175119D01*
X622697Y-165594D01*
X622697Y-142178D01*
X631825Y-133050D01*
X631031Y-133050D01*
G37*
G54D28*
X631031Y-133050D02*
X641350Y-133050D01*
X671116Y-162816D01*
X671116Y-165594D01*
X661591Y-175119D01*
X632222Y-175119D01*
X622697Y-165594D01*
X622697Y-142178D01*
X631825Y-133050D01*
X631031Y-133050D01*
G36*
X186531Y-386256D02*
X236141Y-386256D01*
X244475Y-377922D01*
X244475Y-341806D01*
X241300Y-338631D01*
X180578Y-338631D01*
X176609Y-334662D01*
X170656Y-334662D01*
X170656Y-352919D01*
X185341Y-367603D01*
X185341Y-383081D01*
X187325Y-385066D01*
X186531Y-386256D01*
G37*
G54D28*
X186531Y-386256D02*
X236141Y-386256D01*
X244475Y-377922D01*
X244475Y-341806D01*
X241300Y-338631D01*
X180578Y-338631D01*
X176609Y-334662D01*
X170656Y-334662D01*
X170656Y-352919D01*
X185341Y-367603D01*
X185341Y-383081D01*
X187325Y-385066D01*
X186531Y-386256D01*
G54D14*
X556044Y-409812D02*
X556044Y-445662D01*
X556247Y-445865D01*
G54D14*
X530847Y-445865D02*
X530847Y-463547D01*
X538000Y-470700D01*
X608428Y-470700D01*
X622397Y-456731D01*
G54D14*
X495285Y-304156D02*
X495285Y-330428D01*
X486028Y-339684D01*
G54D14*
X556244Y-266599D02*
X556244Y-303940D01*
X556032Y-304153D01*
G54D14*
X555944Y-125899D02*
X555932Y-161756D01*
G54D14*
X495185Y-161759D02*
X495185Y-187515D01*
X486228Y-196472D01*
G54D21*
X521581Y-838892D02*
X508208Y-838892D01*
X475700Y-871400D01*
X475700Y-926066D01*
X505980Y-956346D01*
G54D21*
X448783Y-880940D02*
X474440Y-880940D01*
X474500Y-881000D01*
G54D14*
X96945Y-89200D02*
X96945Y-135353D01*
X66898Y-165400D01*
G54D14*
X677920Y-78837D02*
X677920Y-125388D01*
X648270Y-155038D01*
G54D14*
X678820Y-108388D02*
X713666Y-108388D01*
X730313Y-125034D01*
X730313Y-171650D01*
X698700Y-203262D01*
G54D14*
X1267731Y-87993D02*
X1267731Y-134544D01*
X1238081Y-164194D01*
G54D14*
X1274420Y-126288D02*
X1309266Y-126288D01*
X1325913Y-142934D01*
X1325913Y-189550D01*
X1294300Y-221162D01*
G54D14*
X1073901Y-476806D02*
X1073901Y-541296D01*
X1073769Y-541427D01*
G54D14*
X1113769Y-541427D02*
X1113769Y-528381D01*
X1136703Y-505447D01*
X1199995Y-505447D01*
X1212020Y-493422D01*
G54D14*
X1073901Y-115106D02*
X1073901Y-103615D01*
X1085941Y-91575D01*
X1129925Y-91575D01*
X1154000Y-67500D01*
X1154000Y-49402D01*
X1153900Y-49303D01*
G54D14*
X992279Y-50031D02*
X992279Y-37334D01*
X1004225Y-25388D01*
X1089985Y-25388D01*
X1113900Y-49303D01*
G54D14*
X987779Y-604415D02*
X987779Y-650958D01*
X979578Y-659159D01*
G54D14*
X1023722Y-816464D02*
X1023722Y-747238D01*
X1023819Y-738134D01*
G54D14*
X1074400Y-778697D02*
X1074400Y-763753D01*
X1100019Y-738134D01*
G54D14*
X1100019Y-706268D02*
X1100019Y-658978D01*
X1099819Y-658778D01*
X1099819Y-615592D01*
X1094937Y-610710D01*
G36*
X204149Y-647293D02*
X245296Y-647293D01*
X245299Y-647290D01*
X245299Y-667936D01*
X269652Y-692289D01*
X269652Y-709719D01*
X218851Y-709719D01*
X218850Y-709720D01*
X218850Y-684321D01*
X218852Y-684319D01*
X218852Y-661995D01*
X204149Y-647293D01*
G37*
G54D28*
X204149Y-647293D02*
X245296Y-647293D01*
X245299Y-647290D01*
X245299Y-667936D01*
X269652Y-692289D01*
X269652Y-709719D01*
X218851Y-709719D01*
X218850Y-709720D01*
X218850Y-684321D01*
X218852Y-684319D01*
X218852Y-661995D01*
X204149Y-647293D01*
G54D14*
X822591Y-764629D02*
X822591Y-783109D01*
X777100Y-828600D01*
X763513Y-828600D01*
X763388Y-828725D01*
G36*
X200552Y-954436D02*
X200552Y-977630D01*
X209550Y-986628D01*
X251572Y-986628D01*
X251800Y-986400D01*
X251800Y-954883D01*
X251353Y-954436D01*
X225953Y-954436D01*
X225952Y-954436D01*
X200553Y-954436D01*
X200552Y-954436D01*
G37*
G54D28*
X200552Y-954436D02*
X200552Y-977630D01*
X209550Y-986628D01*
X251572Y-986628D01*
X251800Y-986400D01*
X251800Y-954883D01*
X251353Y-954436D01*
X225953Y-954436D01*
X225952Y-954436D01*
X200553Y-954436D01*
X200552Y-954436D01*
%LPD*%
X622797Y-202531D02*
G54D10*
D03*
X622797Y-242531D02*
G54D10*
D03*
X622797Y-282531D02*
G54D10*
D03*
X698600Y-202928D02*
G54D10*
D03*
X698600Y-242928D02*
G54D10*
D03*
X698600Y-282928D02*
G54D10*
D03*
X677920Y-78837D02*
G54D13*
D03*
X677920Y-155037D02*
G54D13*
D03*
X648270Y-155038D02*
G54D13*
D03*
X648270Y-78838D02*
G54D13*
D03*
X707680Y-155037D02*
G54D13*
D03*
X707680Y-78837D02*
G54D13*
D03*
G54D29*
X707680Y-155037D02*
X677920Y-155037D01*
X617420Y-55487D02*
G54D13*
D03*
X617420Y-131687D02*
G54D13*
D03*
G54D29*
X617412Y-371896D02*
X646712Y-371896D01*
X647112Y-371496D01*
G54D29*
X647112Y-320696D02*
X676812Y-320696D01*
X677012Y-320496D01*
G54D29*
X677012Y-371296D02*
X706813Y-371296D01*
X707012Y-371096D01*
X622397Y-416731D02*
G54D10*
D03*
X622397Y-456731D02*
G54D10*
D03*
X622397Y-496731D02*
G54D10*
D03*
X698200Y-417128D02*
G54D10*
D03*
X698200Y-457128D02*
G54D10*
D03*
X698200Y-497128D02*
G54D10*
D03*
G54D29*
X617412Y-321096D02*
X617412Y-337600D01*
X626013Y-346200D01*
X695813Y-346200D01*
X707113Y-334900D01*
X707113Y-320396D01*
X707012Y-320296D01*
G54D29*
X622397Y-456731D02*
X643582Y-456731D01*
X683213Y-417100D01*
X698172Y-417100D01*
X698200Y-417128D01*
G54D29*
X622797Y-242531D02*
X646744Y-242531D01*
X662513Y-258300D01*
X662513Y-319200D01*
G54D29*
X622397Y-416731D02*
X622397Y-376881D01*
X617413Y-371896D01*
G54D29*
X707012Y-320296D02*
X707012Y-291340D01*
X698600Y-282928D01*
X758456Y-40501D02*
G54D15*
D03*
X733054Y-40503D02*
G54D30*
D03*
X1122301Y-426806D02*
G54D10*
D03*
X1073901Y-426806D02*
G54D10*
D03*
X1122301Y-375506D02*
G54D10*
D03*
X1073901Y-375506D02*
G54D10*
D03*
X1122301Y-323806D02*
G54D10*
D03*
X1073901Y-323806D02*
G54D10*
D03*
X1122301Y-271306D02*
G54D10*
D03*
X1073901Y-271306D02*
G54D10*
D03*
X1122301Y-219406D02*
G54D10*
D03*
X1073901Y-219406D02*
G54D10*
D03*
X1122301Y-476806D02*
G54D10*
D03*
X1073901Y-476806D02*
G54D10*
D03*
X1122301Y-167606D02*
G54D10*
D03*
X1073901Y-167606D02*
G54D10*
D03*
X1122301Y-115106D02*
G54D10*
D03*
X1073901Y-115106D02*
G54D10*
D03*
X1153900Y-49303D02*
G54D18*
D03*
X1113900Y-49303D02*
G54D18*
D03*
X1073900Y-49303D02*
G54D18*
D03*
X1073769Y-541427D02*
G54D18*
D03*
X1113769Y-541427D02*
G54D18*
D03*
X1153769Y-541428D02*
G54D18*
D03*
G36*
X1242944Y-55322D02*
X1237094Y-61172D01*
X1228794Y-61172D01*
X1222944Y-55322D01*
X1222944Y-27022D01*
X1228794Y-21172D01*
X1237094Y-21172D01*
X1242944Y-27022D01*
X1242944Y-55322D01*
G37*
G36*
X1217544Y-55322D02*
X1211694Y-61172D01*
X1203394Y-61172D01*
X1197544Y-55322D01*
X1197544Y-27022D01*
X1203394Y-21172D01*
X1211694Y-21172D01*
X1217544Y-27022D01*
X1217544Y-55322D01*
G37*
X41822Y-221228D02*
G54D10*
D03*
X41822Y-261228D02*
G54D10*
D03*
X41822Y-301228D02*
G54D10*
D03*
X117625Y-221625D02*
G54D10*
D03*
X117625Y-261625D02*
G54D10*
D03*
X117625Y-301625D02*
G54D10*
D03*
X96945Y-89200D02*
G54D13*
D03*
X96945Y-165400D02*
G54D13*
D03*
X66898Y-165400D02*
G54D13*
D03*
X66898Y-89200D02*
G54D13*
D03*
X126705Y-165400D02*
G54D13*
D03*
X126705Y-89200D02*
G54D13*
D03*
G54D29*
X126705Y-165400D02*
X96945Y-165400D01*
X36445Y-88706D02*
G54D13*
D03*
X36445Y-164906D02*
G54D13*
D03*
G54D29*
X97745Y-126750D02*
X132591Y-126750D01*
X149238Y-143397D01*
X149238Y-190012D01*
X117625Y-221625D01*
X36437Y-339793D02*
G54D13*
D03*
X36438Y-390593D02*
G54D13*
D03*
G54D29*
X36437Y-390593D02*
X65737Y-390593D01*
X66137Y-390193D01*
G54D29*
X66137Y-339393D02*
X95837Y-339393D01*
X96037Y-339193D01*
G54D29*
X96037Y-389993D02*
X125838Y-389993D01*
X126038Y-389793D01*
X41422Y-435428D02*
G54D10*
D03*
X41422Y-475428D02*
G54D10*
D03*
X41422Y-515428D02*
G54D10*
D03*
X117225Y-435825D02*
G54D10*
D03*
X117225Y-475825D02*
G54D10*
D03*
X117225Y-515825D02*
G54D10*
D03*
G54D29*
X36437Y-339793D02*
X36437Y-356296D01*
X45038Y-364897D01*
X114838Y-364897D01*
X126138Y-353597D01*
X126138Y-339093D01*
X126037Y-338993D01*
G54D29*
X41422Y-475428D02*
X62606Y-475428D01*
X102238Y-435797D01*
X117197Y-435797D01*
X117225Y-435825D01*
G54D29*
X41822Y-261228D02*
X65769Y-261228D01*
X81538Y-276997D01*
X81538Y-337897D01*
G54D29*
X41422Y-435428D02*
X41422Y-395578D01*
X36438Y-390593D01*
G54D29*
X126037Y-338993D02*
X126037Y-310037D01*
X117625Y-301625D01*
G36*
X124828Y-54938D02*
X118978Y-60788D01*
X110678Y-60788D01*
X104828Y-54938D01*
X104828Y-26638D01*
X110678Y-20788D01*
X118978Y-20788D01*
X124828Y-26638D01*
X124828Y-54938D01*
G37*
G36*
X99428Y-54938D02*
X93578Y-60788D01*
X85278Y-60788D01*
X79428Y-54938D01*
X79428Y-26638D01*
X85278Y-20788D01*
X93578Y-20788D01*
X99428Y-26638D01*
X99428Y-54938D01*
G37*
X904933Y-111418D02*
G54D13*
D03*
X904933Y-139433D02*
G54D13*
D03*
X880964Y-125386D02*
G54D13*
D03*
X962877Y-125308D02*
G54D13*
D03*
X962877Y-153324D02*
G54D13*
D03*
X938908Y-139277D02*
G54D13*
D03*
X917197Y-166219D02*
G54D13*
D03*
X917197Y-242419D02*
G54D13*
D03*
X945188Y-177928D02*
G54D13*
D03*
X945188Y-254128D02*
G54D13*
D03*
X794678Y-63131D02*
G54D13*
D03*
X794678Y-139331D02*
G54D13*
D03*
G54D29*
X904933Y-139433D02*
X938752Y-139433D01*
X938908Y-139277D01*
G54D29*
X904933Y-111418D02*
X948986Y-111418D01*
X962877Y-125308D01*
X854430Y-125299D02*
G54D13*
D03*
X854430Y-153314D02*
G54D13*
D03*
X830461Y-139267D02*
G54D13*
D03*
X886463Y-166191D02*
G54D13*
D03*
X886463Y-242391D02*
G54D13*
D03*
G54D29*
X854430Y-153314D02*
X854430Y-183708D01*
X854494Y-183772D01*
X824288Y-168428D02*
G54D13*
D03*
X824288Y-244628D02*
G54D13*
D03*
G54D29*
X824288Y-168428D02*
X853782Y-168428D01*
X853856Y-168503D01*
G54D29*
X854430Y-125299D02*
X880877Y-125299D01*
X880964Y-125386D01*
G54D29*
X938795Y-82072D02*
X938795Y-110465D01*
X938756Y-110503D01*
X908878Y-82131D02*
G54D13*
D03*
X832678Y-82131D02*
G54D13*
D03*
X908778Y-53231D02*
G54D13*
D03*
X832578Y-53231D02*
G54D13*
D03*
G54D29*
X854430Y-125299D02*
X854430Y-103883D01*
X832678Y-82131D01*
X794588Y-168228D02*
G54D13*
D03*
X794588Y-244428D02*
G54D13*
D03*
G54D29*
X832578Y-53231D02*
X846384Y-53231D01*
X875356Y-82203D01*
X908806Y-82203D01*
X908878Y-82131D01*
G54D29*
X832678Y-82131D02*
X802578Y-82131D01*
X794678Y-74231D01*
X794678Y-63131D01*
G54D29*
X794678Y-139331D02*
X794678Y-168138D01*
X794588Y-168228D01*
G54D29*
X830461Y-139267D02*
X794742Y-139267D01*
X794678Y-139331D01*
G54D29*
X854494Y-209172D02*
X864266Y-209172D01*
X886463Y-186975D01*
X886463Y-166191D01*
G54D29*
X908878Y-82131D02*
X908878Y-107472D01*
X904933Y-111418D01*
G54D29*
X916897Y-166219D02*
X916897Y-140762D01*
X885656Y-392092D02*
G54D13*
D03*
X885656Y-364076D02*
G54D13*
D03*
X909624Y-378123D02*
G54D13*
D03*
X827712Y-378201D02*
G54D13*
D03*
X827712Y-350186D02*
G54D13*
D03*
X851681Y-364232D02*
G54D13*
D03*
X868892Y-335306D02*
G54D13*
D03*
X868892Y-259106D02*
G54D13*
D03*
X782795Y-350037D02*
G54D13*
D03*
X782795Y-426237D02*
G54D13*
D03*
X995911Y-440378D02*
G54D13*
D03*
X995911Y-364178D02*
G54D13*
D03*
G54D29*
X885656Y-364076D02*
X851837Y-364076D01*
X851681Y-364232D01*
G54D29*
X885656Y-392092D02*
X841603Y-392092D01*
X827712Y-378201D01*
X936159Y-378210D02*
G54D13*
D03*
X936159Y-350195D02*
G54D13*
D03*
X960128Y-364242D02*
G54D13*
D03*
X904126Y-335334D02*
G54D13*
D03*
X904126Y-259134D02*
G54D13*
D03*
G54D29*
X936159Y-350195D02*
X936159Y-319801D01*
X936095Y-319737D01*
X966301Y-335081D02*
G54D13*
D03*
X966301Y-258881D02*
G54D13*
D03*
G54D29*
X966301Y-335081D02*
X936808Y-335081D01*
X936732Y-335006D01*
G54D29*
X936159Y-378210D02*
X909712Y-378210D01*
X909624Y-378123D01*
G54D29*
X851794Y-419453D02*
X851794Y-393044D01*
X851832Y-393006D01*
X881711Y-419394D02*
G54D13*
D03*
X957911Y-419394D02*
G54D13*
D03*
X881811Y-449231D02*
G54D13*
D03*
X958011Y-449231D02*
G54D13*
D03*
G54D29*
X936159Y-378210D02*
X936159Y-399627D01*
X957911Y-419394D01*
X996001Y-335281D02*
G54D13*
D03*
X996001Y-259081D02*
G54D13*
D03*
G54D29*
X995911Y-364178D02*
X995911Y-335372D01*
X996001Y-335281D01*
G54D29*
X960128Y-364242D02*
X995847Y-364242D01*
X995911Y-364178D01*
G54D29*
X936095Y-294337D02*
X926323Y-294337D01*
X904126Y-316534D01*
X904126Y-335334D01*
G54D29*
X881711Y-419394D02*
X881711Y-396037D01*
X885656Y-392092D01*
G54D29*
X868892Y-335306D02*
X868892Y-361647D01*
G54D29*
X1025894Y-364238D02*
X996070Y-364337D01*
X995911Y-364178D01*
X992279Y-126231D02*
G54D13*
D03*
X992279Y-50031D02*
G54D13*
D03*
G54D29*
X992279Y-126231D02*
X992279Y-157356D01*
X992394Y-157472D01*
X764679Y-319831D02*
G54D13*
D03*
X764679Y-243631D02*
G54D13*
D03*
G54D29*
X764694Y-139172D02*
X764679Y-243631D01*
G54D29*
X764694Y-113772D02*
X788219Y-113772D01*
X794678Y-120231D01*
X794678Y-139331D01*
G54D29*
X782795Y-350037D02*
X827712Y-350186D01*
G54D29*
X827401Y-320081D02*
X827401Y-349875D01*
X827712Y-350186D01*
G54D29*
X992394Y-182872D02*
X950132Y-182872D01*
X945188Y-177928D01*
G54D29*
X962877Y-153324D02*
X962877Y-180624D01*
G54D29*
X827401Y-294681D02*
X770828Y-294681D01*
X764679Y-300831D01*
X764679Y-319831D01*
G54D29*
X881711Y-419394D02*
X881711Y-449131D01*
X881811Y-449231D01*
X328093Y-151027D02*
G54D13*
D03*
X328093Y-179042D02*
G54D13*
D03*
X304124Y-164996D02*
G54D13*
D03*
X386036Y-164918D02*
G54D13*
D03*
X386036Y-192933D02*
G54D13*
D03*
X362068Y-178886D02*
G54D13*
D03*
X340356Y-205431D02*
G54D13*
D03*
X340356Y-281631D02*
G54D13*
D03*
X368347Y-225538D02*
G54D13*
D03*
X368347Y-301738D02*
G54D13*
D03*
X217838Y-102741D02*
G54D13*
D03*
X217838Y-178941D02*
G54D13*
D03*
G54D29*
X328093Y-179042D02*
X361911Y-179042D01*
X362068Y-178886D01*
G54D29*
X328093Y-151027D02*
X372146Y-151027D01*
X386036Y-164918D01*
X277589Y-164908D02*
G54D13*
D03*
X277589Y-192924D02*
G54D13*
D03*
X253621Y-178877D02*
G54D13*
D03*
X309622Y-205403D02*
G54D13*
D03*
X309622Y-281603D02*
G54D13*
D03*
G54D29*
X277589Y-192924D02*
X277589Y-223317D01*
X277653Y-223381D01*
X247447Y-208038D02*
G54D13*
D03*
X247447Y-284238D02*
G54D13*
D03*
G54D29*
X247447Y-208038D02*
X276941Y-208038D01*
X277016Y-208112D01*
G54D29*
X277589Y-164908D02*
X304036Y-164908D01*
X304124Y-164996D01*
G54D29*
X361954Y-121681D02*
X361954Y-150074D01*
X361916Y-150112D01*
X332038Y-121740D02*
G54D13*
D03*
X255838Y-121740D02*
G54D13*
D03*
X352138Y-82522D02*
G54D13*
D03*
X275938Y-82522D02*
G54D13*
D03*
G54D29*
X277589Y-164908D02*
X277589Y-143492D01*
X255838Y-121740D01*
X217747Y-207838D02*
G54D13*
D03*
X217747Y-284038D02*
G54D13*
D03*
G54D29*
X255838Y-121740D02*
X225738Y-121740D01*
X217838Y-113841D01*
X217838Y-102741D01*
G54D29*
X217838Y-178941D02*
X217838Y-207747D01*
X217747Y-207838D01*
G54D29*
X253621Y-178877D02*
X217902Y-178877D01*
X217838Y-178941D01*
G54D29*
X277653Y-248781D02*
X287425Y-248781D01*
X309622Y-226584D01*
X309622Y-205403D01*
G54D29*
X332038Y-121740D02*
X332038Y-147082D01*
X328093Y-151027D01*
G54D29*
X340056Y-205431D02*
X340056Y-181472D01*
X340316Y-181212D01*
X308815Y-431701D02*
G54D13*
D03*
X308815Y-403686D02*
G54D13*
D03*
X332784Y-417732D02*
G54D13*
D03*
X250871Y-417810D02*
G54D13*
D03*
X250871Y-389795D02*
G54D13*
D03*
X274840Y-403842D02*
G54D13*
D03*
X292051Y-374916D02*
G54D13*
D03*
X292051Y-298716D02*
G54D13*
D03*
X205954Y-389547D02*
G54D13*
D03*
X205954Y-465747D02*
G54D13*
D03*
X417470Y-480087D02*
G54D13*
D03*
X417470Y-403887D02*
G54D13*
D03*
G54D29*
X308815Y-403686D02*
X274996Y-403686D01*
X274840Y-403842D01*
G54D29*
X308815Y-431701D02*
X264762Y-431701D01*
X250871Y-417810D01*
X359318Y-417820D02*
G54D13*
D03*
X359318Y-389804D02*
G54D13*
D03*
X383287Y-403851D02*
G54D13*
D03*
X327286Y-374944D02*
G54D13*
D03*
X327286Y-298744D02*
G54D13*
D03*
G54D29*
X359318Y-389804D02*
X359318Y-359411D01*
X359254Y-359347D01*
X389460Y-374690D02*
G54D13*
D03*
X389460Y-298490D02*
G54D13*
D03*
G54D29*
X389460Y-374690D02*
X359967Y-374690D01*
X359892Y-374616D01*
G54D29*
X359318Y-417820D02*
X332871Y-417820D01*
X332784Y-417732D01*
G54D29*
X274954Y-461047D02*
X274954Y-432654D01*
X274992Y-432616D01*
X304870Y-460988D02*
G54D13*
D03*
X381070Y-460988D02*
G54D13*
D03*
X283070Y-494306D02*
G54D13*
D03*
X359270Y-494306D02*
G54D13*
D03*
G54D29*
X359318Y-417820D02*
X359318Y-439236D01*
X381070Y-460988D01*
X417560Y-374890D02*
G54D13*
D03*
X417560Y-298690D02*
G54D13*
D03*
G54D29*
X383287Y-403851D02*
X417470Y-403887D01*
G54D29*
X359254Y-333947D02*
X349482Y-333947D01*
X327286Y-356144D01*
X327286Y-374944D01*
G54D29*
X304870Y-460988D02*
X304870Y-435646D01*
X308815Y-431701D01*
G54D29*
X292051Y-374916D02*
X292051Y-401256D01*
X291792Y-401516D01*
X415438Y-171422D02*
G54D13*
D03*
X415438Y-95222D02*
G54D13*
D03*
G54D29*
X415438Y-168247D02*
X415438Y-196966D01*
X415554Y-197081D01*
X187838Y-334040D02*
G54D13*
D03*
X187838Y-257840D02*
G54D13*
D03*
G54D29*
X187854Y-204081D02*
X187838Y-259825D01*
G54D29*
X205954Y-389547D02*
X250623Y-389547D01*
X250871Y-389795D01*
G54D29*
X250561Y-359690D02*
X250561Y-389484D01*
X250871Y-389795D01*
G54D29*
X386036Y-192933D02*
X386036Y-224599D01*
G54D29*
X250561Y-334290D02*
X193988Y-334290D01*
X187838Y-331312D01*
X187838Y-336025D01*
X485928Y-55772D02*
G54D31*
D03*
G36*
X512929Y-44457D02*
X517609Y-39777D01*
X524249Y-39777D01*
X528929Y-44457D01*
X528929Y-67097D01*
X524249Y-71777D01*
X517609Y-71777D01*
X512929Y-67097D01*
X512929Y-44457D01*
G37*
X555928Y-55772D02*
G54D31*
D03*
X485944Y-125899D02*
G54D31*
D03*
X555944Y-125899D02*
G54D31*
D03*
X1240090Y-547005D02*
G54D13*
D03*
X1214690Y-547005D02*
G54D13*
D03*
X1300303Y-702290D02*
G54D13*
D03*
X1300303Y-730305D02*
G54D13*
D03*
X1276334Y-716258D02*
G54D13*
D03*
X1269102Y-748319D02*
G54D13*
D03*
X1269102Y-824519D02*
G54D13*
D03*
X1326664Y-776600D02*
G54D13*
D03*
X1326664Y-852800D02*
G54D13*
D03*
G54D29*
X1269102Y-748319D02*
X1281892Y-748319D01*
X1300303Y-730305D01*
X1208102Y-670538D02*
G54D13*
D03*
X1208102Y-746737D02*
G54D13*
D03*
X1238101Y-594519D02*
G54D13*
D03*
X1238101Y-670718D02*
G54D13*
D03*
X1267801Y-594419D02*
G54D13*
D03*
X1267801Y-670618D02*
G54D13*
D03*
X1238108Y-748219D02*
G54D13*
D03*
X1238108Y-824419D02*
G54D13*
D03*
X1325845Y-656075D02*
G54D13*
D03*
X1300445Y-656075D02*
G54D13*
D03*
X1202170Y-878832D02*
G54D13*
D03*
X1176770Y-878832D02*
G54D13*
D03*
X1208661Y-610806D02*
G54D13*
D03*
X1132461Y-610806D02*
G54D13*
D03*
G54D29*
X1238101Y-670718D02*
X1238108Y-748219D01*
G54D29*
X1276334Y-716258D02*
X1239768Y-716258D01*
X1239652Y-716375D01*
G54D29*
X1300303Y-702290D02*
X1300445Y-656075D01*
G54D29*
X1267801Y-670618D02*
X1298895Y-670618D01*
X1218425Y-301652D02*
G54D10*
D03*
X1218425Y-261652D02*
G54D10*
D03*
X1218425Y-221652D02*
G54D10*
D03*
X1294228Y-301255D02*
G54D10*
D03*
X1294228Y-261255D02*
G54D10*
D03*
X1294228Y-221255D02*
G54D10*
D03*
X1267731Y-87993D02*
G54D13*
D03*
X1267731Y-164193D02*
G54D13*
D03*
X1237287Y-164194D02*
G54D13*
D03*
X1237287Y-87994D02*
G54D13*
D03*
X1297490Y-164193D02*
G54D13*
D03*
X1297490Y-87993D02*
G54D13*
D03*
G54D29*
X1297490Y-164193D02*
X1267731Y-164193D01*
X1207231Y-87896D02*
G54D13*
D03*
X1207231Y-164096D02*
G54D13*
D03*
G54D29*
X1207231Y-87896D02*
X1207231Y-41256D01*
X1207148Y-41172D01*
G54D29*
X1218425Y-301652D02*
X1234376Y-301652D01*
X1275182Y-260847D01*
X1293820Y-260847D01*
X1294228Y-261255D01*
X1242980Y-417222D02*
G54D13*
D03*
X1242980Y-493422D02*
G54D13*
D03*
X1274230Y-417222D02*
G54D13*
D03*
X1274230Y-493422D02*
G54D13*
D03*
X1212020Y-493422D02*
G54D13*
D03*
X1212020Y-417222D02*
G54D13*
D03*
G54D29*
X1294228Y-261255D02*
X1325720Y-261255D01*
X1326047Y-260928D01*
G54D29*
X1242980Y-417222D02*
X1274230Y-417222D01*
G54D29*
X1294228Y-301255D02*
X1294228Y-368116D01*
X1282394Y-379950D01*
X1269873Y-379922D01*
G54D29*
X1218425Y-261652D02*
X1194498Y-285546D01*
X1194507Y-326309D01*
X1218278Y-350156D01*
G54D29*
X706219Y-371096D02*
X713065Y-371096D01*
X721222Y-379253D01*
X721222Y-446053D01*
X710322Y-456953D01*
X698200Y-457128D01*
G54D29*
X126037Y-389793D02*
X133678Y-389793D01*
X141835Y-397950D01*
X141835Y-464750D01*
X130935Y-475650D01*
X117400Y-475650D01*
X117225Y-475825D01*
G54D29*
X1207231Y-164096D02*
X1207231Y-178606D01*
X1221075Y-192450D01*
X1256000Y-192450D01*
X1267510Y-180941D01*
X1267731Y-164193D01*
G54D29*
X617420Y-131687D02*
X617420Y-166196D01*
X631264Y-180041D01*
X666189Y-180041D01*
X677699Y-168531D01*
X677920Y-155037D01*
G54D29*
X36445Y-164906D02*
X36445Y-179018D01*
X50289Y-192862D01*
X85214Y-192862D01*
X96724Y-181353D01*
X96724Y-168002D01*
X96945Y-167781D01*
G54D29*
X908778Y-53231D02*
X908778Y-46972D01*
X878453Y-16647D01*
X390041Y-17047D01*
X352094Y-54944D01*
X352138Y-82522D01*
G54D29*
X1025894Y-338838D02*
X1025413Y-26862D01*
G54D29*
X448354Y-349147D02*
X448751Y-58313D01*
G54D29*
X89428Y-40788D02*
X84364Y-40788D01*
X36445Y-88706D01*
G54D29*
X1122301Y-115106D02*
X1122301Y-167606D01*
G54D29*
X1073901Y-115106D02*
X1073901Y-167606D01*
G54D29*
X1122301Y-426806D02*
X1122301Y-476806D01*
G54D29*
X1073901Y-426806D02*
X1073901Y-476806D01*
G54D29*
X1073901Y-219406D02*
X1073901Y-216006D01*
X1122301Y-167606D01*
G54D29*
X1073901Y-271306D02*
X1073901Y-267806D01*
X1122301Y-219406D01*
G54D29*
X1073901Y-323806D02*
X1073901Y-319706D01*
X1122301Y-271306D01*
G54D29*
X1073901Y-375506D02*
X1073901Y-372206D01*
X1122301Y-323806D01*
G54D29*
X1122301Y-271306D02*
X1168138Y-270116D01*
X1168898Y-269356D01*
G54D29*
X1122301Y-115106D02*
X1168762Y-115106D01*
X1168897Y-114971D01*
G54D29*
X1168898Y-334444D02*
X1132939Y-334444D01*
X1122301Y-323806D01*
G54D29*
X1122301Y-219406D02*
X1154554Y-219406D01*
X1168898Y-205063D01*
G54D29*
X530532Y-161756D02*
X495288Y-161756D01*
X495185Y-161859D01*
G54D29*
X545985Y-304153D02*
X495388Y-304153D01*
X495285Y-304256D01*
G54D29*
X535213Y-445865D02*
X497588Y-445865D01*
X497485Y-445968D01*
X486228Y-196472D02*
G54D31*
D03*
X521228Y-196472D02*
G54D31*
D03*
X556228Y-196472D02*
G54D31*
D03*
X486244Y-266599D02*
G54D31*
D03*
X556244Y-266599D02*
G54D31*
D03*
X486028Y-339684D02*
G54D31*
D03*
X521028Y-339684D02*
G54D31*
D03*
X556028Y-339684D02*
G54D31*
D03*
X486044Y-409812D02*
G54D31*
D03*
X556044Y-409812D02*
G54D31*
D03*
X187845Y-72606D02*
G54D13*
D03*
X187845Y-148806D02*
G54D13*
D03*
X263946Y-40306D02*
G54D13*
D03*
X187746Y-40306D02*
G54D13*
D03*
X157494Y-72237D02*
G54D13*
D03*
X157494Y-46837D02*
G54D13*
D03*
G36*
X335547Y-54644D02*
X329697Y-60494D01*
X321397Y-60494D01*
X315547Y-54644D01*
X315547Y-26344D01*
X321397Y-20494D01*
X329697Y-20494D01*
X335547Y-26344D01*
X335547Y-54644D01*
G37*
G36*
X310147Y-54644D02*
X304297Y-60494D01*
X295997Y-60494D01*
X290147Y-54644D01*
X290147Y-26344D01*
X295997Y-20494D01*
X304297Y-20494D01*
X310147Y-26344D01*
X310147Y-54644D01*
G37*
G54D29*
X187854Y-178681D02*
X217578Y-178681D01*
X217838Y-178941D01*
G54D29*
X157494Y-72237D02*
X187477Y-72237D01*
X187845Y-72606D01*
X187845Y-40405D01*
X187746Y-40306D01*
G54D29*
X263946Y-40306D02*
X299958Y-40306D01*
X300147Y-40494D01*
G54D29*
X187845Y-148806D02*
X172557Y-148806D01*
X165610Y-155753D01*
X165610Y-196353D01*
X173310Y-204053D01*
X187826Y-204053D01*
X187854Y-204081D01*
G54D29*
X187838Y-257840D02*
X187838Y-276940D01*
X164000Y-300788D01*
X163956Y-351181D01*
X179631Y-366856D01*
X179578Y-495162D01*
X137788Y-536953D01*
X93488Y-536953D01*
X83088Y-526553D01*
X83088Y-457753D01*
X31610Y-33806D02*
G54D20*
D03*
X1316710Y-31906D02*
G54D20*
D03*
X32347Y-962512D02*
G54D20*
D03*
X881240Y-893001D02*
G54D13*
D03*
X841240Y-893001D02*
G54D13*
D03*
X187854Y-204081D02*
G54D13*
D03*
X187854Y-178681D02*
G54D13*
D03*
X250561Y-359691D02*
G54D13*
D03*
X250561Y-334290D02*
G54D13*
D03*
X66138Y-390192D02*
G54D13*
D03*
X66138Y-339392D02*
G54D13*
D03*
X96038Y-339192D02*
G54D13*
D03*
X96038Y-389992D02*
G54D13*
D03*
X126038Y-389793D02*
G54D13*
D03*
X126037Y-338993D02*
G54D13*
D03*
X617412Y-321096D02*
G54D13*
D03*
X617413Y-371896D02*
G54D13*
D03*
X647113Y-371496D02*
G54D13*
D03*
X647113Y-320696D02*
G54D13*
D03*
X677013Y-320496D02*
G54D13*
D03*
X677013Y-371296D02*
G54D13*
D03*
X707013Y-371096D02*
G54D13*
D03*
X707012Y-320296D02*
G54D13*
D03*
X1269078Y-350156D02*
G54D13*
D03*
X1218278Y-350156D02*
G54D13*
D03*
X1269873Y-379922D02*
G54D13*
D03*
X1219073Y-379922D02*
G54D13*
D03*
X415553Y-225456D02*
G54D13*
D03*
X415554Y-200056D02*
G54D13*
D03*
X277653Y-248781D02*
G54D13*
D03*
X277653Y-223381D02*
G54D13*
D03*
X361954Y-121681D02*
G54D13*
D03*
X387354Y-121681D02*
G54D13*
D03*
X274954Y-461047D02*
G54D13*
D03*
X249554Y-461047D02*
G54D13*
D03*
X359254Y-359347D02*
G54D13*
D03*
X359254Y-333947D02*
G54D13*
D03*
X448354Y-374647D02*
G54D13*
D03*
X448354Y-349247D02*
G54D13*
D03*
X530847Y-445865D02*
G54D13*
D03*
X556247Y-445865D02*
G54D13*
D03*
X530632Y-304153D02*
G54D13*
D03*
X556032Y-304153D02*
G54D13*
D03*
X530532Y-161756D02*
G54D13*
D03*
X555932Y-161756D02*
G54D13*
D03*
X495185Y-161759D02*
G54D13*
D03*
X469785Y-161759D02*
G54D13*
D03*
X495285Y-304156D02*
G54D13*
D03*
X469885Y-304156D02*
G54D13*
D03*
X497485Y-445868D02*
G54D13*
D03*
X472085Y-445868D02*
G54D13*
D03*
X938795Y-82072D02*
G54D13*
D03*
X964195Y-82072D02*
G54D13*
D03*
X764694Y-139172D02*
G54D13*
D03*
X764694Y-113772D02*
G54D13*
D03*
X854494Y-209172D02*
G54D13*
D03*
X854494Y-183772D02*
G54D13*
D03*
X992394Y-182872D02*
G54D13*
D03*
X992394Y-157472D02*
G54D13*
D03*
X827401Y-320081D02*
G54D13*
D03*
X827401Y-294681D02*
G54D13*
D03*
X1025894Y-364238D02*
G54D13*
D03*
X1025894Y-338838D02*
G54D13*
D03*
X851794Y-419453D02*
G54D13*
D03*
X826394Y-419453D02*
G54D13*
D03*
X936095Y-319738D02*
G54D13*
D03*
X936095Y-294337D02*
G54D13*
D03*
X1168898Y-399928D02*
G54D13*
D03*
X1168898Y-374528D02*
G54D13*
D03*
X1168898Y-334444D02*
G54D13*
D03*
X1168898Y-309044D02*
G54D13*
D03*
X1168898Y-269357D02*
G54D13*
D03*
X1168898Y-243956D02*
G54D13*
D03*
X1168898Y-205063D02*
G54D13*
D03*
X1168898Y-179663D02*
G54D13*
D03*
X1168897Y-115368D02*
G54D13*
D03*
X1168897Y-140768D02*
G54D13*
D03*
X1326047Y-260928D02*
G54D13*
D03*
X1326047Y-235528D02*
G54D13*
D03*
G54D29*
X1325845Y-656075D02*
X1325845Y-261130D01*
X1326047Y-260928D01*
G54D29*
X1219073Y-379922D02*
X1242132Y-379922D01*
G36*
X1180650Y-971096D02*
X1174800Y-976946D01*
X1166500Y-976946D01*
X1160650Y-971096D01*
X1160650Y-942796D01*
X1166500Y-936946D01*
X1174800Y-936946D01*
X1180650Y-942796D01*
X1180650Y-971096D01*
G37*
G36*
X1155250Y-971096D02*
X1149400Y-976946D01*
X1141100Y-976946D01*
X1135250Y-971096D01*
X1135250Y-942796D01*
X1141100Y-936946D01*
X1149400Y-936946D01*
X1155250Y-942796D01*
X1155250Y-971096D01*
G37*
G54D32*
X958117Y-478214D02*
X806541Y-478116D01*
X750488Y-534169D01*
X627584Y-534238D01*
X612953Y-519606D01*
X359256Y-519562D01*
X595352Y-766617D02*
G54D24*
D03*
X519152Y-766616D02*
G54D24*
D03*
X595352Y-690417D02*
G54D24*
D03*
X595352Y-639617D02*
G54D24*
D03*
X595352Y-588817D02*
G54D24*
D03*
X519152Y-690417D02*
G54D24*
D03*
X519152Y-639617D02*
G54D24*
D03*
X519152Y-588817D02*
G54D24*
D03*
X1046384Y-778697D02*
G54D13*
D03*
X1074400Y-778697D02*
G54D13*
D03*
X1060353Y-802666D02*
G54D13*
D03*
X1100019Y-738134D02*
G54D13*
D03*
X1023819Y-738134D02*
G54D13*
D03*
X1100019Y-706268D02*
G54D13*
D03*
X1023819Y-706268D02*
G54D13*
D03*
X1099819Y-658778D02*
G54D13*
D03*
X1023619Y-658778D02*
G54D13*
D03*
X1023722Y-816464D02*
G54D13*
D03*
X998322Y-816464D02*
G54D13*
D03*
G36*
X836459Y-598552D02*
X836459Y-618552D01*
X816459Y-618552D01*
X816459Y-598552D01*
X836459Y-598552D01*
G37*
X826459Y-633952D02*
G54D13*
D03*
X826459Y-659352D02*
G54D13*
D03*
X826459Y-684752D02*
G54D13*
D03*
X902659Y-684752D02*
G54D13*
D03*
X902659Y-659352D02*
G54D13*
D03*
X902658Y-633952D02*
G54D13*
D03*
X902659Y-608552D02*
G54D13*
D03*
X928062Y-541229D02*
G54D13*
D03*
X902662Y-541229D02*
G54D13*
D03*
X979578Y-735359D02*
G54D13*
D03*
X979578Y-659159D02*
G54D13*
D03*
X915167Y-775114D02*
G54D13*
D03*
X943182Y-775113D02*
G54D13*
D03*
X929136Y-799082D02*
G54D13*
D03*
X838073Y-540387D02*
G54D13*
D03*
X863473Y-540387D02*
G54D13*
D03*
X877510Y-724359D02*
G54D13*
D03*
X822741Y-724359D02*
G54D13*
D03*
X947420Y-894606D02*
G54D13*
D03*
X947420Y-869206D02*
G54D13*
D03*
X884869Y-756097D02*
G54D13*
D03*
X884869Y-832297D02*
G54D13*
D03*
X763388Y-828725D02*
G54D13*
D03*
X763388Y-904925D02*
G54D13*
D03*
X822591Y-764629D02*
G54D13*
D03*
X797191Y-764629D02*
G54D13*
D03*
X763366Y-684444D02*
G54D13*
D03*
X763366Y-659044D02*
G54D13*
D03*
X763388Y-723950D02*
G54D13*
D03*
X763388Y-800150D02*
G54D13*
D03*
G54D29*
X826459Y-659352D02*
X763674Y-659352D01*
X763366Y-659044D01*
G54D29*
X763366Y-684444D02*
X763366Y-723928D01*
X763388Y-723950D01*
G54D29*
X797191Y-764629D02*
X797891Y-660303D01*
X798025Y-660169D01*
G54D29*
X822591Y-764629D02*
X823291Y-724909D01*
X822741Y-724359D01*
X831071Y-825533D02*
G54D13*
D03*
X856471Y-825533D02*
G54D13*
D03*
X804854Y-850991D02*
G54D13*
D03*
X804854Y-927191D02*
G54D13*
D03*
G54D29*
X856272Y-783662D02*
X856366Y-616630D01*
X848287Y-608552D01*
X826459Y-608552D01*
G36*
X964663Y-971425D02*
X958813Y-977275D01*
X950513Y-977275D01*
X944663Y-971425D01*
X944663Y-943125D01*
X950513Y-937275D01*
X958813Y-937275D01*
X964663Y-943125D01*
X964663Y-971425D01*
G37*
G36*
X939263Y-971425D02*
X933413Y-977275D01*
X925113Y-977275D01*
X919263Y-971425D01*
X919263Y-943125D01*
X925113Y-937275D01*
X933413Y-937275D01*
X939263Y-943125D01*
X939263Y-971425D01*
G37*
X798319Y-557795D02*
G54D13*
D03*
X758319Y-557795D02*
G54D13*
D03*
G36*
X927479Y-590973D02*
X933037Y-585415D01*
X940921Y-585415D01*
X946479Y-590973D01*
X946479Y-617857D01*
X940921Y-623415D01*
X933037Y-623415D01*
X927479Y-617857D01*
X927479Y-590973D01*
G37*
G36*
X952879Y-590973D02*
X958437Y-585415D01*
X966321Y-585415D01*
X971879Y-590973D01*
X971879Y-617857D01*
X966321Y-623415D01*
X958437Y-623415D01*
X952879Y-617857D01*
X952879Y-590973D01*
G37*
G36*
X978279Y-590973D02*
X983837Y-585415D01*
X991721Y-585415D01*
X997279Y-590973D01*
X997279Y-617857D01*
X991721Y-623415D01*
X983837Y-623415D01*
X978279Y-617857D01*
X978279Y-590973D01*
G37*
G54D29*
X1267801Y-594419D02*
X1238201Y-594419D01*
X1238101Y-594519D01*
X1224949Y-594519D01*
X1208661Y-610806D01*
X1208661Y-672359D01*
X1208102Y-672919D01*
G36*
X582274Y-403072D02*
X586954Y-398392D01*
X593594Y-398392D01*
X598274Y-403072D01*
X598274Y-425712D01*
X593594Y-430392D01*
X586954Y-430392D01*
X582274Y-425712D01*
X582274Y-403072D01*
G37*
G36*
X579270Y-533330D02*
X601270Y-533330D01*
X601270Y-555330D01*
X579270Y-555330D01*
X579270Y-533330D01*
G37*
G54D29*
X590672Y-20441D02*
X590270Y-414391D01*
G54D29*
X902659Y-684752D02*
X883727Y-684752D01*
X876210Y-677234D01*
X876210Y-553110D01*
X863473Y-540387D01*
G54D29*
X902659Y-608552D02*
X902662Y-541229D01*
G36*
X596047Y-971431D02*
X590197Y-977281D01*
X581897Y-977281D01*
X576047Y-971431D01*
X576047Y-943131D01*
X581897Y-937281D01*
X590197Y-937281D01*
X596047Y-943131D01*
X596047Y-971431D01*
G37*
G36*
X570647Y-971431D02*
X564797Y-977281D01*
X556497Y-977281D01*
X550647Y-971431D01*
X550647Y-943131D01*
X556497Y-937281D01*
X564797Y-937281D01*
X570647Y-943131D01*
X570647Y-971431D01*
G37*
X1316635Y-961206D02*
G54D20*
D03*
G54D29*
X957911Y-419394D02*
X974926Y-419394D01*
X995911Y-440378D01*
G54D29*
X41422Y-515428D02*
X41422Y-573662D01*
X1132373Y-687228D02*
G54D13*
D03*
X1132373Y-763428D02*
G54D13*
D03*
X1036894Y-866104D02*
G54D13*
D03*
X1064909Y-866104D02*
G54D13*
D03*
X1050863Y-890073D02*
G54D13*
D03*
X1103946Y-865718D02*
G54D13*
D03*
X1103946Y-891118D02*
G54D13*
D03*
G54D29*
X1214690Y-547005D02*
X1175003Y-586731D01*
X1175003Y-716072D01*
X1165203Y-725872D01*
X1112372Y-725812D01*
X1100019Y-738134D01*
X1014439Y-926825D02*
G54D13*
D03*
X1090639Y-926825D02*
G54D13*
D03*
G54D29*
X758319Y-557795D02*
X817322Y-498953D01*
X949263Y-499150D01*
X1043510Y-593303D01*
X1043447Y-638972D01*
X1023619Y-658778D01*
G54D32*
X958011Y-449231D02*
X958117Y-478214D01*
X1058181Y-578184D01*
X1099872Y-578234D01*
X1132461Y-610806D01*
G54D29*
X902659Y-659352D02*
X959592Y-659352D01*
X973278Y-659159D01*
X973278Y-659122D01*
X1269230Y-891473D02*
G54D13*
D03*
X1269230Y-866073D02*
G54D13*
D03*
X1274011Y-547727D02*
G54D13*
D03*
X1299411Y-547727D02*
G54D13*
D03*
G54D29*
X1323994Y-519941D02*
X1267154Y-519941D01*
X1240090Y-547005D01*
G54D29*
X1299411Y-547727D02*
X1299411Y-581036D01*
X1286291Y-594156D01*
X1268064Y-594156D01*
X1267801Y-594419D01*
X415275Y-55628D02*
G54D13*
D03*
X389875Y-55628D02*
G54D13*
D03*
G54D29*
X415553Y-225456D02*
X368347Y-225538D01*
G54D29*
X764679Y-243631D02*
X741878Y-266406D01*
X741778Y-345869D01*
X754875Y-358966D01*
X754875Y-473109D01*
X731010Y-497175D01*
X698200Y-497128D01*
G54D29*
X947420Y-869206D02*
X947420Y-856651D01*
X884653Y-793784D01*
X884653Y-756313D01*
X884869Y-756097D01*
G54D29*
X884869Y-756097D02*
X884869Y-731718D01*
X877510Y-724359D01*
G54D29*
X915167Y-775114D02*
X884886Y-775114D01*
X884869Y-775097D01*
G54D29*
X943182Y-775113D02*
X943082Y-660663D01*
G36*
X27422Y-607706D02*
X21572Y-601856D01*
X21572Y-593556D01*
X27422Y-587706D01*
X55722Y-587706D01*
X61572Y-593556D01*
X61572Y-601856D01*
X55722Y-607706D01*
X27422Y-607706D01*
G37*
G36*
X27422Y-582306D02*
X21572Y-576456D01*
X21572Y-568156D01*
X27422Y-562306D01*
X55722Y-562306D01*
X61572Y-568156D01*
X61572Y-576456D01*
X55722Y-582306D01*
X27422Y-582306D01*
G37*
X151112Y-754856D02*
G54D13*
D03*
X179127Y-754856D02*
G54D13*
D03*
X165080Y-778825D02*
G54D13*
D03*
X88827Y-723612D02*
G54D13*
D03*
X165027Y-723612D02*
G54D13*
D03*
X66662Y-754714D02*
G54D13*
D03*
X41262Y-754714D02*
G54D13*
D03*
X192890Y-607134D02*
G54D13*
D03*
X192890Y-530934D02*
G54D13*
D03*
X204149Y-647293D02*
G54D13*
D03*
X178749Y-647292D02*
G54D13*
D03*
X218852Y-684319D02*
G54D24*
D03*
X218852Y-735119D02*
G54D24*
D03*
X269652Y-709719D02*
G54D24*
D03*
G54D32*
X66662Y-754714D02*
X151112Y-754856D01*
X270699Y-647290D02*
G54D13*
D03*
X245299Y-647290D02*
G54D13*
D03*
X270612Y-854894D02*
G54D13*
D03*
X194412Y-854894D02*
G54D13*
D03*
X270542Y-826725D02*
G54D13*
D03*
X194342Y-826725D02*
G54D13*
D03*
X298062Y-854729D02*
G54D13*
D03*
X323462Y-854729D02*
G54D13*
D03*
X295611Y-667652D02*
G54D13*
D03*
X371811Y-667652D02*
G54D13*
D03*
X283671Y-607328D02*
G54D13*
D03*
X283671Y-531128D02*
G54D13*
D03*
X222277Y-557798D02*
G54D13*
D03*
X222277Y-583198D02*
G54D13*
D03*
X254821Y-557798D02*
G54D13*
D03*
X254821Y-583198D02*
G54D13*
D03*
G54D32*
X192890Y-530934D02*
X283671Y-531128D01*
G54D32*
X222277Y-557798D02*
X254821Y-557798D01*
G54D32*
X238666Y-555459D02*
X238666Y-533038D01*
G36*
X55722Y-682360D02*
X61572Y-688210D01*
X61572Y-696510D01*
X55722Y-702360D01*
X27422Y-702360D01*
X21572Y-696510D01*
X21572Y-688210D01*
X27422Y-682360D01*
X55722Y-682360D01*
G37*
G36*
X55722Y-707760D02*
X61572Y-713610D01*
X61572Y-721910D01*
X55722Y-727760D01*
X27422Y-727760D01*
X21572Y-721910D01*
X21572Y-713610D01*
X27422Y-707760D01*
X55722Y-707760D01*
G37*
G54D32*
X41572Y-717760D02*
X41262Y-754414D01*
G54D32*
X283671Y-531128D02*
X347691Y-531128D01*
X359256Y-519562D01*
X359270Y-494306D01*
G36*
X796206Y-971725D02*
X790356Y-977575D01*
X782056Y-977575D01*
X776206Y-971725D01*
X776206Y-943425D01*
X782056Y-937575D01*
X790356Y-937575D01*
X796206Y-943425D01*
X796206Y-971725D01*
G37*
G36*
X770806Y-971725D02*
X764956Y-977575D01*
X756656Y-977575D01*
X750806Y-971725D01*
X750806Y-943425D01*
X756656Y-937575D01*
X764956Y-937575D01*
X770806Y-943425D01*
X770806Y-971725D01*
G37*
X611468Y-804603D02*
G54D31*
D03*
X611468Y-880803D02*
G54D31*
D03*
X672282Y-611373D02*
G54D13*
D03*
X700297Y-611373D02*
G54D13*
D03*
X686251Y-587404D02*
G54D13*
D03*
X648031Y-665980D02*
G54D13*
D03*
X648031Y-611211D02*
G54D13*
D03*
X729169Y-611197D02*
G54D13*
D03*
X729169Y-687397D02*
G54D13*
D03*
X728978Y-774062D02*
G54D13*
D03*
X703578Y-774062D02*
G54D13*
D03*
G54D29*
X760806Y-957575D02*
X729250Y-925928D01*
X729169Y-687397D01*
G54D29*
X672282Y-611373D02*
X648031Y-611211D01*
G54D33*
X560668Y-881803D02*
X560647Y-957281D01*
X82840Y-669142D02*
G54D10*
D03*
X139640Y-669142D02*
G54D10*
D03*
X82443Y-593735D02*
G54D10*
D03*
X139243Y-593735D02*
G54D10*
D03*
G54D29*
X102956Y-754669D02*
X102956Y-860806D01*
X122910Y-880759D01*
X333163Y-880559D01*
X395384Y-818372D01*
X395350Y-652428D01*
X408334Y-639466D01*
X519152Y-639617D01*
G54D32*
X82443Y-593735D02*
X82443Y-578482D01*
X104356Y-556569D01*
X165956Y-556469D01*
X192856Y-583669D01*
X192890Y-607134D01*
G36*
X708509Y-971053D02*
X702659Y-976903D01*
X694359Y-976903D01*
X688509Y-971053D01*
X688509Y-942753D01*
X694359Y-936903D01*
X702659Y-936903D01*
X708509Y-942753D01*
X708509Y-971053D01*
G37*
G36*
X683109Y-971053D02*
X677259Y-976903D01*
X668959Y-976903D01*
X663109Y-971053D01*
X663109Y-942753D01*
X668959Y-936903D01*
X677259Y-936903D01*
X683109Y-942753D01*
X683109Y-971053D01*
G37*
X270742Y-798325D02*
G54D13*
D03*
X194542Y-798325D02*
G54D13*
D03*
X135194Y-855087D02*
G54D13*
D03*
X58994Y-855087D02*
G54D13*
D03*
X135123Y-826919D02*
G54D13*
D03*
X58923Y-826919D02*
G54D13*
D03*
X164826Y-855122D02*
G54D13*
D03*
X164826Y-829722D02*
G54D13*
D03*
G54D32*
X164918Y-777425D02*
X164826Y-829722D01*
X135323Y-798519D02*
G54D13*
D03*
X59123Y-798519D02*
G54D13*
D03*
G54D32*
X164826Y-855122D02*
X135194Y-855087D01*
G54D29*
X275938Y-82522D02*
X292819Y-82522D01*
X332038Y-121740D01*
G54D29*
X485928Y-55772D02*
X415419Y-55772D01*
X415275Y-55628D01*
X415275Y-95059D01*
X415438Y-95222D01*
G54D29*
X419160Y-374890D02*
X448810Y-374890D01*
X449054Y-374647D01*
G54D32*
X135323Y-798519D02*
X103950Y-798519D01*
G54D29*
X88727Y-723612D02*
X88727Y-752017D01*
X88644Y-752100D01*
G54D29*
X1242980Y-493422D02*
X1212020Y-493422D01*
G36*
X260353Y-967171D02*
X255088Y-972436D01*
X247618Y-972436D01*
X242353Y-967171D01*
X242353Y-941701D01*
X247618Y-936436D01*
X255088Y-936436D01*
X260353Y-941701D01*
X260353Y-967171D01*
G37*
G36*
X234952Y-967171D02*
X229688Y-972436D01*
X222218Y-972436D01*
X216952Y-967171D01*
X216952Y-941701D01*
X222218Y-936436D01*
X229688Y-936436D01*
X234952Y-941701D01*
X234952Y-967171D01*
G37*
G36*
X209552Y-967171D02*
X204288Y-972436D01*
X196818Y-972436D01*
X191552Y-967171D01*
X191552Y-941701D01*
X196818Y-936436D01*
X204288Y-936436D01*
X209552Y-941701D01*
X209552Y-967171D01*
G37*
X158204Y-944434D02*
G54D13*
D03*
X82004Y-944434D02*
G54D13*
D03*
X158203Y-914668D02*
G54D13*
D03*
X82004Y-914668D02*
G54D13*
D03*
X341001Y-918606D02*
G54D13*
D03*
X417201Y-918606D02*
G54D13*
D03*
X422141Y-615329D02*
G54D13*
D03*
X422140Y-663351D02*
G54D13*
D03*
G36*
X462286Y-716476D02*
X440286Y-716476D01*
X440286Y-694476D01*
X462286Y-694476D01*
X462286Y-716476D01*
G37*
G36*
X433280Y-806501D02*
X411280Y-806501D01*
X411280Y-784501D01*
X433280Y-784501D01*
X433280Y-806501D01*
G37*
G54D32*
X595352Y-639617D02*
X622766Y-612745D01*
X622768Y-559928D01*
G54D32*
X758319Y-557795D02*
X604435Y-557995D01*
X590268Y-544328D01*
G54D33*
X595352Y-588817D02*
X572739Y-588817D01*
X563850Y-579928D01*
X563850Y-521828D01*
G54D33*
X648031Y-665980D02*
X648031Y-714147D01*
X625350Y-736828D01*
X548940Y-736828D01*
X519152Y-766616D01*
G54D33*
X611468Y-804603D02*
X580225Y-804603D01*
X562450Y-786828D01*
X562450Y-737528D01*
G54D33*
X595352Y-690417D02*
X647450Y-690328D01*
G54D32*
X464286Y-601328D02*
X464252Y-521342D01*
X435466Y-564164D02*
G54D13*
D03*
X435466Y-538764D02*
G54D13*
D03*
X514221Y-519398D02*
G54D13*
D03*
X514221Y-544798D02*
G54D13*
D03*
X464286Y-677528D02*
G54D13*
D03*
X464286Y-601328D02*
G54D13*
D03*
G54D32*
X519152Y-588817D02*
X537639Y-588817D01*
X558450Y-609628D01*
X558450Y-645728D01*
X539350Y-664828D01*
X506450Y-664828D01*
X489350Y-681928D01*
X489350Y-712928D01*
X470781Y-731497D01*
X470781Y-838892D01*
G54D32*
X519152Y-690417D02*
X519152Y-724926D01*
X493050Y-751028D01*
X493050Y-782828D01*
X507250Y-797028D01*
X531753Y-797028D01*
X569153Y-834428D01*
X648450Y-834428D01*
X673050Y-859028D01*
X673109Y-956903D01*
G54D32*
X671982Y-612573D02*
X671882Y-723396D01*
X628750Y-766428D01*
X595540Y-766428D01*
X595352Y-766617D01*
G54D32*
X200552Y-954436D02*
X200552Y-977630D01*
X209550Y-986628D01*
X418975Y-986628D01*
X449180Y-956346D01*
G54D33*
X505583Y-880940D02*
X611468Y-880803D01*
X560668Y-855303D02*
G54D13*
D03*
X560668Y-880703D02*
G54D13*
D03*
X611335Y-912350D02*
G54D13*
D03*
X585935Y-912350D02*
G54D13*
D03*
X301637Y-950511D02*
G54D13*
D03*
X327037Y-950511D02*
G54D13*
D03*
X417000Y-890862D02*
G54D13*
D03*
X391600Y-890862D02*
G54D13*
D03*
G54D32*
X178749Y-647292D02*
X178749Y-642927D01*
X158750Y-622928D01*
X125354Y-622928D01*
X82840Y-665442D01*
G54D32*
X139243Y-593735D02*
X139250Y-622028D01*
X315180Y-634716D02*
G54D10*
D03*
X371980Y-634715D02*
G54D10*
D03*
X314783Y-559309D02*
G54D10*
D03*
X371583Y-559309D02*
G54D10*
D03*
X449180Y-956346D02*
G54D10*
D03*
X505980Y-956346D02*
G54D10*
D03*
X448783Y-880940D02*
G54D10*
D03*
X505583Y-880940D02*
G54D10*
D03*
G54D29*
X831071Y-825533D02*
X831071Y-838808D01*
X819050Y-850828D01*
X805016Y-850828D01*
X804854Y-850991D01*
G54D29*
X555944Y-125899D02*
X555928Y-55772D01*
G54D29*
X556228Y-196472D02*
X556244Y-266599D01*
G54D29*
X556028Y-339684D02*
X556044Y-409812D01*
G54D32*
X435466Y-538764D02*
X435466Y-522040D01*
G54D29*
X304870Y-460988D02*
X304870Y-491506D01*
X302070Y-494306D01*
X283070Y-494306D01*
G54D29*
X1269078Y-350156D02*
X1256488Y-350156D01*
X1242609Y-364034D01*
X1242609Y-410851D01*
X1242980Y-417222D01*
X1069537Y-610710D02*
G54D13*
D03*
X1094937Y-610710D02*
G54D13*
D03*
G54D29*
X1132461Y-610806D02*
X1132461Y-685640D01*
X1132373Y-685728D01*
G54D29*
X902658Y-633952D02*
X956048Y-633952D01*
X962553Y-627447D01*
X962553Y-604589D01*
X962379Y-604415D01*
G54D29*
X700297Y-611373D02*
X724193Y-611373D01*
X729169Y-611197D01*
G54D29*
X758319Y-557795D02*
X758319Y-582760D01*
X809272Y-633712D01*
X826220Y-633712D01*
X826459Y-633952D01*
G54D29*
X1064909Y-866104D02*
X1103560Y-866104D01*
X1103946Y-865718D01*
G54D29*
X1176770Y-878832D02*
X1146491Y-878832D01*
G54D29*
X1269102Y-824519D02*
X1269102Y-865944D01*
X1269230Y-866073D01*
G54D29*
X1326664Y-776600D02*
X1297920Y-776600D01*
X1269102Y-805419D01*
X1269102Y-824519D01*
G54D29*
X1202170Y-878832D02*
X1202170Y-804150D01*
X1238102Y-768119D01*
X1238108Y-748219D01*
G54D29*
X1145250Y-956946D02*
X1145250Y-809588D01*
X1208102Y-746737D01*
G54D29*
X1132373Y-763428D02*
X1132373Y-777211D01*
X1104072Y-805512D01*
X1104072Y-865592D01*
X1103946Y-865718D01*
G54D29*
X1023819Y-706268D02*
X1023819Y-738134D01*
G54D29*
X1046384Y-778697D02*
X1025056Y-778697D01*
X1024972Y-778612D01*
G54D29*
X998322Y-816464D02*
X981723Y-816464D01*
G54D29*
X1014439Y-926825D02*
X1014439Y-867946D01*
X1014472Y-867912D01*
G54D29*
X856272Y-783662D02*
X856272Y-825334D01*
X856471Y-825533D01*
X856471Y-877770D01*
X841240Y-893001D01*
G54D29*
X929263Y-957275D02*
X929263Y-920785D01*
X901434Y-892956D01*
X881285Y-892956D01*
X881240Y-893001D01*
G54D29*
X979478Y-735359D02*
X979478Y-840578D01*
X1004969Y-866069D01*
X1036894Y-866104D01*
X339092Y-782948D02*
G54D10*
D03*
X364492Y-757548D02*
G54D10*
D03*
X339092Y-732148D02*
G54D10*
D03*
G36*
X207530Y-717720D02*
X202850Y-713040D01*
X202850Y-706400D01*
X207530Y-701720D01*
X230170Y-701720D01*
X234850Y-706400D01*
X234850Y-713040D01*
X230170Y-717720D01*
X207530Y-717720D01*
G37*
G54D32*
X218846Y-709718D02*
X269652Y-709719D01*
G54D32*
X422141Y-615329D02*
X422141Y-607341D01*
X405341Y-590141D01*
X359755Y-590141D01*
X315180Y-634716D01*
G54D32*
X371583Y-556134D02*
X371583Y-587736D01*
X371606Y-587759D01*
G54D32*
X225952Y-954436D02*
X225952Y-923515D01*
X216825Y-914388D01*
X158484Y-914388D01*
X158203Y-914668D01*
X158204Y-944434D01*
X470781Y-838892D02*
G54D13*
D03*
X521581Y-838892D02*
G54D13*
D03*
G54D33*
X611468Y-880303D02*
X611468Y-912217D01*
X611335Y-912350D01*
G54D32*
X371980Y-631540D02*
X371980Y-667484D01*
X371811Y-667652D01*
G54D32*
X298062Y-854729D02*
X270777Y-854729D01*
X270612Y-854894D01*
G54D32*
X371811Y-667652D02*
X371811Y-699430D01*
X339092Y-732148D01*
G54D32*
X364492Y-757548D02*
X281495Y-757548D01*
X270800Y-768244D01*
X270800Y-798266D01*
X270742Y-798325D01*
G54D32*
X323462Y-854729D02*
X323462Y-798579D01*
X339092Y-782948D01*
G54D32*
X270542Y-826725D02*
X322347Y-826725D01*
X322394Y-826678D01*
G54D32*
X283671Y-607328D02*
X283671Y-590421D01*
X314783Y-559309D01*
G54D32*
X179127Y-754856D02*
X179127Y-737712D01*
X165027Y-723612D01*
G54D32*
X139640Y-669142D02*
X139640Y-698225D01*
X165027Y-723612D01*
G54D32*
X218852Y-684319D02*
X218852Y-661995D01*
X204149Y-647293D01*
G54D32*
X269652Y-709719D02*
X269652Y-692289D01*
X245334Y-667972D01*
X245334Y-647325D01*
X245299Y-647290D01*
G54D32*
X270699Y-647290D02*
X275248Y-647290D01*
X295611Y-667652D01*
G54D32*
X306334Y-755772D02*
X306334Y-678376D01*
X295611Y-667652D01*
G36*
X463530Y-75776D02*
X478530Y-75776D01*
X478530Y-105776D01*
X463530Y-105776D01*
X463530Y-75776D01*
G37*
G36*
X565134Y-75578D02*
X580134Y-75578D01*
X580134Y-105578D01*
X565134Y-105578D01*
X565134Y-75578D01*
G37*
G36*
X463934Y-217072D02*
X478934Y-217072D01*
X478934Y-247072D01*
X463934Y-247072D01*
X463934Y-217072D01*
G37*
G36*
X565534Y-216872D02*
X580534Y-216872D01*
X580534Y-246872D01*
X565534Y-246872D01*
X565534Y-216872D01*
G37*
G36*
X463634Y-360172D02*
X478634Y-360172D01*
X478634Y-390172D01*
X463634Y-390172D01*
X463634Y-360172D01*
G37*
G36*
X565234Y-359972D02*
X580234Y-359972D01*
X580234Y-389972D01*
X565234Y-389972D01*
X565234Y-359972D01*
G37*
G54D29*
X381070Y-460988D02*
X398470Y-460988D01*
X417470Y-479987D01*
G54D29*
X417560Y-374890D02*
X417560Y-403797D01*
X417470Y-403887D01*
G54D29*
X733053Y-40500D02*
X632407Y-40500D01*
X617420Y-55487D01*
X1052136Y-72781D02*
G54D13*
D03*
X1051739Y-512121D02*
G54D13*
D03*
G54D32*
X135123Y-826919D02*
X162023Y-826919D01*
X164826Y-829722D01*
G54D29*
X1122301Y-375506D02*
X1122301Y-426806D01*
G54D29*
X1168898Y-399928D02*
X1124888Y-399928D01*
X1124762Y-399803D01*
G54D32*
X451286Y-705476D02*
X451186Y-822470D01*
X416998Y-856658D01*
X417201Y-918606D01*
X385559Y-950478D01*
X327037Y-950511D01*
G54D32*
X422280Y-795501D02*
X422280Y-820567D01*
X344606Y-898441D01*
X278706Y-898441D01*
X251306Y-925841D01*
X251306Y-954390D01*
X251353Y-954436D01*
G54D32*
X422140Y-663351D02*
X422140Y-795362D01*
X422280Y-795501D01*
G54D32*
X451286Y-705476D02*
X451286Y-690528D01*
X464286Y-677528D01*
G54D29*
X556044Y-409812D02*
X556044Y-445662D01*
X556247Y-445865D01*
G54D29*
X530847Y-445865D02*
X530847Y-463547D01*
X538000Y-470700D01*
X608428Y-470700D01*
X622397Y-456731D01*
G54D29*
X495285Y-304156D02*
X495285Y-330428D01*
X486028Y-339684D01*
G54D29*
X556244Y-266599D02*
X556244Y-303940D01*
X556032Y-304153D01*
G54D29*
X555944Y-125899D02*
X555932Y-161756D01*
G54D29*
X495185Y-161759D02*
X495185Y-187515D01*
X486228Y-196472D01*
G54D32*
X521581Y-838892D02*
X508208Y-838892D01*
X475700Y-871400D01*
X475700Y-926066D01*
X505980Y-956346D01*
G54D32*
X448783Y-880940D02*
X474440Y-880940D01*
X474500Y-881000D01*
G54D29*
X96945Y-89200D02*
X96945Y-135353D01*
X66898Y-165400D01*
G54D29*
X677920Y-78837D02*
X677920Y-125388D01*
X648270Y-155038D01*
G54D29*
X678820Y-108388D02*
X713666Y-108388D01*
X730313Y-125034D01*
X730313Y-171650D01*
X698700Y-203262D01*
G54D29*
X1267731Y-87993D02*
X1267731Y-134544D01*
X1238081Y-164194D01*
G54D29*
X1274420Y-126288D02*
X1309266Y-126288D01*
X1325913Y-142934D01*
X1325913Y-189550D01*
X1294300Y-221162D01*
G54D29*
X1073901Y-476806D02*
X1073901Y-541296D01*
X1073769Y-541427D01*
G54D29*
X1113769Y-541427D02*
X1113769Y-528381D01*
X1136703Y-505447D01*
X1199995Y-505447D01*
X1212020Y-493422D01*
G54D29*
X1073901Y-115106D02*
X1073901Y-103615D01*
X1085941Y-91575D01*
X1129925Y-91575D01*
X1154000Y-67500D01*
X1154000Y-49402D01*
X1153900Y-49303D01*
G54D29*
X992279Y-50031D02*
X992279Y-37334D01*
X1004225Y-25388D01*
X1089985Y-25388D01*
X1113900Y-49303D01*
G54D29*
X987779Y-604415D02*
X987779Y-650958D01*
X979578Y-659159D01*
G54D29*
X1023722Y-816464D02*
X1023722Y-747238D01*
X1023819Y-738134D01*
G54D29*
X1074400Y-778697D02*
X1074400Y-763753D01*
X1100019Y-738134D01*
G54D29*
X1100019Y-706268D02*
X1100019Y-658978D01*
X1099819Y-658778D01*
X1099819Y-615592D01*
X1094937Y-610710D01*
G54D29*
X822591Y-764629D02*
X822591Y-783109D01*
X777100Y-828600D01*
X763513Y-828600D01*
X763388Y-828725D01*
M02*
